<?xml version="1.0" standalone="no"?><!DOCTYPE svg PUBLIC "-//W3C//DTD SVG 1.1//EN" "http://www.w3.org/Graphics/SVG/1.1/DTD/svg11.dtd"><svg width="100%" height="100%" viewBox="0 0 200 200" version="1.1" xmlns="http://www.w3.org/2000/svg" xmlns:xlink="http://www.w3.org/1999/xlink" xml:space="preserve" style="fill-rule:evenodd;clip-rule:evenodd;stroke-miterlimit:1.41421;"><g id="g2829"><path id="path3704" d="M3.125,25l0,159.375l193.75,0l0,-159.375l-193.75,0l0,-4.54747e-13Z" style="fill:#737373;fill-rule:nonzero;"/><path id="path3702" d="M100,28.125l0,153.125l93.75,0l0,-153.125l-93.75,0l0,-4.54747e-13Z" style="fill:#f2f2f2;fill-rule:nonzero;"/><path id="path3714" d="M156.25,25l0,43.75l12.5,-12.5l12.5,12.5l0,-43.75l-25,0Z" style="fill:#f77462;fill-rule:nonzero;"/><path id="path3709" d="M6.25,28.125l0,153.125l93.4094,0l0,-153.125l-93.4094,0l0,-4.54747e-13Z" style="fill:#6dc5dd;fill-rule:nonzero;"/><path id="path3783" d="M9.375,25l0,153.287l90.625,2.96344l0,-153.287l-90.625,-2.96334l0,-9.375e-05Z" style="fill:#f2f2f2;fill-rule:nonzero;"/><path id="path3756" d="M12.5,21.875l0,153.287l87.5,6.08844l0,-153.287l-87.5,-6.08844Z" style="fill:#ddd;fill-rule:nonzero;"/><path id="path3785" d="M181.25,28.125l12.5,0l0,28.125l-12.5,12.5l0,-40.625Z" style="fill:#ddd;fill-rule:nonzero;"/><path id="path3250" d="M100.161,84.7814c-3.32393,0 -5.70825,1.95159 -5.70825,5.363l0,23.8458l4.09705,0l0,-17.1248l8.79255,0l5.33998,17.1248l3.63671,0l4.39628,-14.5699l4.44231,14.5699l3.63671,0l6.49084,-20.8305l-4.44231,0l-3.86688,14.4548l-4.67248,-14.4548l-3.13033,0l-4.5574,14.4548l-4.05102,-14.4548l-12.015,0c-2.20965e-05,-0.743509 0,-1.4201 0,-2.16361c-2.20965e-05,-1.79317 0.439484,-2.23266 2.23266,-2.23266l3.82085,0l0,-3.98197l-4.44231,0ZM57.9939,84.8044l0,29.1858l4.18912,0l0,-29.1858l-4.18912,0ZM66.9706,84.8044l0,4.21214l4.18912,0l0,-4.21214l-4.18912,0ZM155.011,84.8044l0,29.1858l4.21214,0l0,-2.37077c1.3121,1.66196 3.312,2.62396 5.45507,2.62396c4.54855,0 6.99721,-3.35558 6.99721,-7.6417l0,-6.39877c7.36549e-06,-3.93624 -2.97351,-7.29644 -6.99721,-7.29644c-2.1868,7.36549e-06 -4.01178,0.959694 -5.45507,2.57792l0,-10.68l-4.21214,0ZM34.6776,92.9064c-2.1868,7.36549e-06 -4.00948,0.959694 -5.40903,2.57792l0,-2.32473l-4.21214,0l0,20.8305l4.21214,0l0,-12.5904c7.36549e-06,-2.44922 1.7422,-4.35024 4.23516,-4.35024c1.18087,0 1.84361,0.359009 2.76206,1.05879l2.87714,-3.63671c-1.26834,-1.04966 -2.84709,-1.56517 -4.46533,-1.56517ZM46.8767,92.9064c-4.67974,7.36549e-06 -8.60842,3.76985 -8.60842,8.49333l0,3.65973c7.36549e-06,5.33578 3.66622,9.18384 9.04574,9.18384c2.88657,0 5.69199,-1.17371 7.57264,-3.3605l-3.10732,-2.76206c-1.18086,1.26834 -2.62382,1.97948 -4.37326,1.97948c-3.06152,0 -4.99472,-1.88718 -4.99472,-4.94869l12.9817,0l0,-3.19938c-7.36549e-06,-4.98589 -3.3555,-9.04574 -8.51635,-9.04574ZM82.5763,92.9064c-4.67974,7.36549e-06 -8.60842,3.76985 -8.60842,8.49333l0,3.65973c-7.36549e-06,5.33578 3.66621,9.18384 9.04574,9.18384c2.88656,0 5.69199,-1.17371 7.57264,-3.3605l-3.10732,-2.76206c-1.18087,1.26834 -2.62382,1.97948 -4.37326,1.97948c-3.06151,0 -4.99472,-1.88718 -4.99472,-4.94869l13.0047,0l0,-3.19938c0,-4.98589 -3.37852,-9.04574 -8.53936,-9.04574ZM143.917,92.9064c-4.67976,7.36549e-06 -8.60842,3.76985 -8.60842,8.49333l0,3.65973c-7.36549e-06,5.33578 3.66622,9.18384 9.04574,9.18384c2.88656,0 5.692,-1.17371 7.57264,-3.3605l-3.10732,-2.76206c-1.18086,1.26834 -2.62382,1.97948 -4.37326,1.97948c-3.06153,0 -4.99472,-1.88718 -4.99472,-4.94869l12.9817,0l0,-3.19938c0,-4.98589 -3.35551,-9.04574 -8.51635,-9.04574ZM66.9706,93.1596l0,20.8305l4.18912,0l0,-20.8305l-4.18912,0ZM46.8306,97.0495c2.5367,0 4.37557,1.92635 4.41929,4.41929l-8.83859,0c0.174938,-2.49295 1.83888,-4.41929 4.41929,-4.41929ZM82.5302,97.0495c2.53669,0 4.37557,1.92635 4.41929,4.41929l-8.83859,0c0.174938,-2.49295 1.83887,-4.41929 4.41929,-4.41929ZM143.871,97.0495c2.53668,0 4.37556,1.92635 4.41929,4.41929l-8.83859,0c0.174945,-2.49295 1.83887,-4.41929 4.41929,-4.41929ZM163.413,97.0495c2.40546,0 4.12007,1.94246 4.12007,4.30421l0,4.37326c-7.36549e-06,2.49295 -1.58568,4.37326 -4.1661,4.37326c-2.75537,0 -4.14309,-2.11508 -4.14309,-4.6955l0,-4.05102c7.36549e-06,-2.44922 1.7399,-4.30421 4.18912,-4.30421Z" style="fill:#e0e0e0;"/><g id="g6112"><path id="path5836" d="M172.227,97.1826c3.38298,1.41056 5.5365,3.39766 5.98808,5.84611c1.34479,7.29178 -12.931,16.0149 -31.9051,19.5028c-18.9742,3.48796 -35.4598,0.404262 -36.8045,-6.88753c-0.373504,-2.0253 0.466972,-4.16886 2.27218,-6.27215l-1.15984,-2.31951c-5.40273,3.72667 -8.33478,7.8203 -7.64485,11.5739c1.53025,8.3255 20.277,11.8404 41.8695,7.85794c21.5925,-3.98243 37.8378,-13.9466 36.3075,-22.272c-0.18237,-0.99236 -0.607358,-1.91854 -1.25442,-2.76921c-0.122856,-0.161466 -0.263905,-0.31721 -0.402377,-0.473373c-0.00736549,-0.00780742 -0.0169406,-0.0158358 -0.0235696,-0.0236432c-0.149372,-0.160347 -0.304342,-0.334806 -0.47338,-0.497038c-0.354648,-0.340286 -0.753784,-0.664897 -1.20713,-0.994083c-0.146058,-0.106048 -0.292263,-0.228257 -0.449663,-0.331359c-0.0824198,-0.05421 -0.175667,-0.112361 -0.26037,-0.165679c-0.0581874,-0.0359436 -0.129485,-0.0591449 -0.189367,-0.0946686c-1.20993,-0.716949 -2.72575,-1.34379 -4.66266,-1.68047l-7.36549e-05,-2.20965e-05Z" style="fill:#e0e0e0;"/><path id="path5265" d="M172.227,95.7095c3.38297,1.41056 5.53649,3.39766 5.98807,5.84611c1.34479,7.29178 -12.931,16.0149 -31.9051,19.5028c-18.9742,3.48796 -35.4598,0.404262 -36.8045,-6.88753c-0.373504,-2.0253 0.466972,-4.16886 2.27218,-6.27215l-1.15984,-2.31951c-5.40273,3.72667 -8.33479,7.8203 -7.64486,11.5739c1.53025,8.3255 20.277,11.8404 41.8695,7.85794c21.5925,-3.98243 37.8378,-13.9466 36.3075,-22.272c-0.18237,-0.99236 -0.607358,-1.91854 -1.25442,-2.76921c-0.122856,-0.161466 -0.263905,-0.31721 -0.402377,-0.473373c-0.00736549,-0.00780742 -0.0169406,-0.0158358 -0.0235696,-0.0236432c-0.149372,-0.160347 -0.304342,-0.334806 -0.47338,-0.497038c-0.354648,-0.340286 -0.753784,-0.664897 -1.20713,-0.994083c-0.146058,-0.106048 -0.292263,-0.228257 -0.449663,-0.331359c-0.0824198,-0.05421 -0.175667,-0.112361 -0.26037,-0.165679c-0.0581874,-0.0359436 -0.129485,-0.0591449 -0.189367,-0.0946686c-1.20993,-0.716949 -2.72575,-1.34379 -4.66265,-1.68047l-7.36549e-05,-2.20965e-05Z" style="fill:#fff;stroke-width:1.47px;stroke:#fff;"/><path id="path4933-0-6" d="M172.227,95.7095c3.38297,1.41056 5.53649,3.39766 5.98807,5.84611c1.34479,7.29178 -12.931,16.0149 -31.9051,19.5028c-18.9742,3.48796 -35.4598,0.404262 -36.8045,-6.88753c-0.373504,-2.0253 0.466972,-4.16886 2.27218,-6.27215l-1.15984,-2.31951c-5.40273,3.72667 -8.33479,7.8203 -7.64486,11.5739c1.53025,8.3255 20.277,11.8404 41.8695,7.85794c21.5925,-3.98243 37.8378,-13.9466 36.3075,-22.272c-0.18237,-0.99236 -0.607358,-1.91854 -1.25442,-2.76921c-0.122856,-0.161466 -0.263905,-0.31721 -0.402377,-0.473373c-0.00736549,-0.00780742 -0.0169406,-0.0158358 -0.0235696,-0.0236432c-0.149372,-0.160347 -0.304342,-0.334806 -0.47338,-0.497038c-0.354648,-0.340286 -0.753784,-0.664897 -1.20713,-0.994083c-0.146058,-0.106048 -0.292263,-0.228257 -0.449663,-0.331359c-0.0824198,-0.05421 -0.175667,-0.112361 -0.26037,-0.165679c-0.0581874,-0.0359436 -0.129485,-0.0591449 -0.189367,-0.0946686c-1.20993,-0.716949 -2.72575,-1.34379 -4.66265,-1.68047l-7.36549e-05,-2.20965e-05Z" style="fill:url(#tag1);"/></g><path id="path3266" d="M100.161,83.3083c-3.32393,0 -5.70825,1.95159 -5.70825,5.363l0,23.8458l4.09705,0l0,-17.1248l8.79255,0l5.33998,17.1248l3.63671,0l4.39628,-14.5699l4.44231,14.5699l3.63671,0l6.49084,-20.8305l-4.44231,0l-3.86688,14.4548l-4.67248,-14.4548l-3.13033,0l-4.5574,14.4548l-4.05102,-14.4548l-12.015,0c-2.20965e-05,-0.743509 0,-1.4201 0,-2.16361c-2.20965e-05,-1.79317 0.439484,-2.23266 2.23266,-2.23266l3.82085,0l0,-3.98197l-4.44231,0ZM57.9939,83.3313l0,29.1858l4.18912,0l0,-29.1858l-4.18912,0ZM66.9706,83.3313l0,4.21214l4.18912,0l0,-4.21214l-4.18912,0ZM155.011,83.3313l0,29.1858l4.21214,0l0,-2.37077c1.3121,1.66196 3.312,2.62396 5.45507,2.62396c4.54855,0 6.99721,-3.35558 6.99721,-7.6417l0,-6.39877c7.36549e-06,-3.93624 -2.97351,-7.29644 -6.99721,-7.29644c-2.1868,7.36549e-06 -4.01178,0.959694 -5.45507,2.57792l0,-10.68l-4.21214,0ZM34.6776,91.4333c-2.1868,7.36549e-06 -4.00948,0.959694 -5.40903,2.57792l0,-2.32473l-4.21214,0l0,20.8305l4.21214,0l0,-12.5904c7.36549e-06,-2.44922 1.7422,-4.35024 4.23516,-4.35024c1.18087,0 1.84361,0.359009 2.76206,1.05879l2.87714,-3.63671c-1.26834,-1.04966 -2.84709,-1.56517 -4.46533,-1.56517ZM46.8767,91.4333c-4.67974,7.36549e-06 -8.60842,3.76985 -8.60842,8.49333l0,3.65973c7.36549e-06,5.33578 3.66622,9.18384 9.04574,9.18384c2.88657,0 5.69199,-1.17371 7.57264,-3.3605l-3.10732,-2.76206c-1.18086,1.26834 -2.62382,1.97948 -4.37326,1.97948c-3.06152,0 -4.99472,-1.88718 -4.99472,-4.94869l12.9817,0l0,-3.19938c-7.36549e-06,-4.98589 -3.3555,-9.04574 -8.51635,-9.04574ZM82.5763,91.4333c-4.67974,7.36549e-06 -8.60842,3.76985 -8.60842,8.49333l0,3.65973c-7.36549e-06,5.33578 3.66621,9.18384 9.04574,9.18384c2.88656,0 5.69199,-1.17371 7.57264,-3.3605l-3.10732,-2.76206c-1.18087,1.26834 -2.62382,1.97948 -4.37326,1.97948c-3.06151,0 -4.99472,-1.88718 -4.99472,-4.94869l13.0047,0l0,-3.19938c0,-4.98589 -3.37852,-9.04574 -8.53936,-9.04574ZM143.917,91.4333c-4.67976,7.36549e-06 -8.60842,3.76985 -8.60842,8.49333l0,3.65973c-7.36549e-06,5.33578 3.66622,9.18384 9.04574,9.18384c2.88656,0 5.692,-1.17371 7.57264,-3.3605l-3.10732,-2.76206c-1.18086,1.26834 -2.62382,1.97948 -4.37326,1.97948c-3.06153,0 -4.99472,-1.88718 -4.99472,-4.94869l12.9817,0l0,-3.19938c0,-4.98589 -3.35551,-9.04574 -8.51635,-9.04574ZM66.9706,91.6865l0,20.8305l4.18912,0l0,-20.8305l-4.18912,0ZM46.8306,95.5764c2.5367,0 4.37557,1.92635 4.41929,4.41929l-8.83859,0c0.174938,-2.49295 1.83888,-4.41929 4.41929,-4.41929ZM82.5302,95.5764c2.53669,0 4.37557,1.92635 4.41929,4.41929l-8.83859,0c0.174938,-2.49295 1.83887,-4.41929 4.41929,-4.41929ZM143.871,95.5764c2.53668,0 4.37556,1.92635 4.41929,4.41929l-8.83859,0c0.174945,-2.49295 1.83887,-4.41929 4.41929,-4.41929ZM163.413,95.5764c2.40546,0 4.12007,1.94246 4.12007,4.30421l0,4.37326c-7.36549e-06,2.49295 -1.58568,4.37326 -4.1661,4.37326c-2.75537,0 -4.14309,-2.11508 -4.14309,-4.6955l0,-4.05102c7.36549e-06,-2.44922 1.7399,-4.30421 4.18912,-4.30421Z" style="fill:#404040;stroke-width:1.47px;stroke:#fff;"/><path id="path3216-7-2" d="M100.105,83.502c-3.32397,0 -5.70825,1.95159 -5.70825,5.363l0,23.8458l4.09705,0l0,-17.1248l8.79255,0l5.33998,17.1248l3.63671,0l4.39624,-14.5699l4.44235,14.5699l3.63671,0l6.49084,-20.8305l-4.44235,0l-3.86688,14.4548l-4.67245,-14.4548l-3.13033,0l-4.5574,14.4548l-4.05102,-14.4548l-12.015,0c-7.36549e-05,-0.743509 0,-1.4201 0,-2.16361c-7.36549e-05,-1.79317 0.439425,-2.23266 2.23263,-2.23266l3.82085,0l0,-3.98197l-4.44227,0ZM57.9376,83.5249l0,29.1858l4.18912,0l0,-29.1858l-4.18912,0ZM66.9143,83.5249l0,4.21214l4.18912,0l0,-4.21214l-4.18912,0ZM154.955,83.5249l0,29.1858l4.21218,0l0,-2.37077c1.31209,1.66196 3.31197,2.62396 5.45503,2.62396c4.54856,0 6.99721,-3.35558 6.99721,-7.6417l0,-6.39877c0,-3.93624 -2.97352,-7.29644 -6.99721,-7.29644c-2.18681,7.36549e-06 -4.01176,0.959694 -5.45503,2.57792l0,-10.68l-4.21218,0ZM34.6212,91.627c-2.18681,7.36549e-06 -4.00948,0.959694 -5.40899,2.57792l0,-2.32473l-4.21218,0l0,20.8305l4.21218,0l0,-12.5904c0,-2.44922 1.74216,-4.35024 4.23516,-4.35024c1.18084,0 1.84358,0.359009 2.76206,1.05879l2.87711,-3.63671c-1.26834,-1.04966 -2.84706,-1.56517 -4.46533,-1.56517ZM46.8203,91.627c-4.67974,7.36549e-06 -8.60842,3.76985 -8.60842,8.49333l0,3.65973c0,5.33578 3.66625,9.18384 9.04578,9.18384c2.88654,0 5.69198,-1.17371 7.57261,-3.3605l-3.10728,-2.76206c-1.18091,1.26834 -2.62388,1.97948 -4.37326,1.97948c-3.06154,0 -4.99476,-1.88718 -4.99476,-4.94869l12.9817,0l0,-3.19938c0,-4.98589 -3.3555,-9.04574 -8.51635,-9.04574ZM82.5199,91.627c-4.67981,7.36549e-06 -8.60842,3.76985 -8.60842,8.49333l0,3.65973c-7.36549e-05,5.33578 3.66617,9.18384 9.0457,9.18384c2.88654,0 5.69198,-1.17371 7.57268,-3.3605l-3.10735,-2.76206c-1.18091,1.26834 -2.62381,1.97948 -4.37326,1.97948c-3.06154,0 -4.99469,-1.88718 -4.99469,-4.94869l13.0047,0l0,-3.19938c0,-4.98589 -3.37855,-9.04574 -8.53933,-9.04574ZM143.861,91.627c-4.67974,7.36549e-06 -8.60842,3.76985 -8.60842,8.49333l0,3.65973c0,5.33578 3.66625,9.18384 9.04578,9.18384c2.88654,0 5.69198,-1.17371 7.57261,-3.3605l-3.10728,-2.76206c-1.18091,1.26834 -2.62388,1.97948 -4.37326,1.97948c-3.06154,0 -4.99476,-1.88718 -4.99476,-4.94869l12.9817,0l0,-3.19938c0,-4.98589 -3.3555,-9.04574 -8.51635,-9.04574ZM66.9143,91.8802l0,20.8305l4.18912,0l0,-20.8305l-4.18912,0ZM46.7742,95.7701c2.53667,0 4.37554,1.92635 4.41929,4.41929l-8.83859,0c0.17493,-2.49295 1.83887,-4.41929 4.41929,-4.41929ZM82.4739,95.7701c2.53667,0 4.37554,1.92635 4.41929,4.41929l-8.83859,0c0.17493,-2.49295 1.83887,-4.41929 4.41929,-4.41929ZM143.815,95.7701c2.53667,0 4.37554,1.92635 4.41929,4.41929l-8.83859,0c0.17493,-2.49295 1.83887,-4.41929 4.41929,-4.41929ZM163.356,95.7701c2.40542,0 4.12003,1.94246 4.12003,4.30421l0,4.37326c0,2.49295 -1.58564,4.37326 -4.16607,4.37326c-2.75543,0 -4.14309,-2.11508 -4.14309,-4.6955l0,-4.05102c0,-2.44922 1.73988,-4.30421 4.18912,-4.30421Z" style="fill:#404040;"/></g><defs><linearGradient id="tag1" x1="0" y1="0" x2="1" y2="0" gradientUnits="userSpaceOnUse" gradientTransform="matrix(-72.6276,19.5557,-19.5557,-72.6276,181.615,105.439)"><stop offset="0%" style="stop-color:#3b9df9;stop-opacity:1"/><stop offset="33%" style="stop-color:#b9a7e4;stop-opacity:1"/><stop offset="66%" style="stop-color:#f284bb;stop-opacity:1"/><stop offset="100%" style="stop-color:#f15050;stop-opacity:1"/></linearGradient></defs></svg>