<svg version="1" xmlns="http://www.w3.org/2000/svg" width="682.667" height="682.667" viewBox="0 0 512.000000 512.000000"><path d="M139.9 110.5c-10.2 3.6-16.9 9-23.9 19.4l-4.3 6.5-1.7-7c-4-16.6-7.5-18.3-30.5-14.9-11.3 1.7-18.6 4-21.6 6.8-2.1 2-2.2 4.7-.4 15.2 1.2 7.1 1.5 9.5 2.1 18.5.4 5.2.7 39 .8 75 .1 50.7.4 66 1.4 67.7 2.6 4.7 8.4 6.3 24.2 6.7 16.4.4 25.8-2.4 27.7-8.2.5-1.5.8-29.3.7-61.7-.1-66.3-.6-61.4 7.6-68.9 7.5-6.8 17.1-9.9 26-8.4 13 2.1 14 2.2 16.1.2 6.2-5.6 10.2-30.8 6.1-38.9-1.8-3.7-3.5-5-9-7.6-4.8-2.3-15.2-2.5-21.3-.4zM317.2 111.3c-8.8 1.2-11.2 3.9-13.7 14.8-1 4.6-1.9 8.6-2 8.9-.6 2-2.4 9.1-8.5 34.5-3.8 15.9-7.6 31.2-8.4 34-.8 2.7-2.4 9.3-3.6 14.5-2.9 12.7-3.1 13.1-4.1 9.5-1.2-4-12.8-48.8-22.9-88-2.8-11-5.6-21-6.2-22.2-.6-1.3-3.2-3.1-5.7-4-8.6-3.3-34.8-1.6-41.9 2.7-4 2.5-4.1 4.6-.6 17.2 1.4 5.1 3.4 12.7 4.5 16.8 1.1 4.1 6.8 24.8 12.6 46s10.6 39.2 10.8 40c.2.8 4 15 8.5 31.5 10.4 38.4 8.8 36.7 35 36.9 19.4.2 28.8-2 30.9-7.3.8-2 5.4-20.3 7.6-30.1.2-.8 2.6-11 5.4-22.5 2.8-11.6 6.6-27.5 8.5-35.4 1.9-7.9 3.7-14.5 3.8-14.7.2-.2 2.3 7.2 4.6 16.4s7.1 28.2 10.7 42.2c3.6 14 6.7 26.2 7 27 4.5 18.6 4.7 19 7.9 20.9 1.8 1.1 5.6 2.4 8.6 2.8 7.5 1.2 31.6.8 36.5-.6 8.5-2.3 8.5-2.5 17-36.1 4.2-16.8 7.9-31.2 8-32 .5-1.9 14.9-58.7 22.1-87 3.1-11.8 5.8-23.3 6-25.5 1.1-8.1-5.2-11.5-22.1-11.7-13.2-.2-20.3 2.5-21.9 8.1-.3.9-1.9 7-3.6 13.6-1.7 6.6-4.7 17.8-6.6 25-4.7 17.8-6.5 24.6-12.9 49-7.1 26.8-6.8 26-7.8 20.5-.3-1.4-1.7-7.5-3.1-13.5-1.5-6.1-3.8-15.5-5.1-21-1.3-5.5-4.7-19.5-7.4-31-2.8-11.6-6.2-25.9-7.7-32-1.4-6-3-11.7-3.5-12.7-1.2-2.2-5.5-4.5-10-5.4-5.4-1-19.9-1-26.7-.1z"/><path d="M470.1 212.5c10.4 7.7 16.2 13.7 19.5 20.3 2.6 5.1 2.9 6.7 2.9 14.7-.1 10.2-2.3 16.8-9.2 27.2-8.5 12.9-30.4 31-53.8 44.5-32.6 18.8-92.8 39.1-143 48.2-15.8 2.9-18.3 3.3-25.1 4.1-3.3.4-6.6.9-7.4 1-.8.2-4.6.6-8.5 1-3.8.4-8.1.8-9.5 1-20.1 2.9-74.6 2.6-94.5-.5-3.3-.5-8.1-1.2-10.7-1.5-31.7-3.6-61.2-15.2-75.7-29.7-9.7-9.7-13.3-21.3-10.6-33.4.9-3.9.9-6.1 0-9.5-.7-2.4-2.3-8.2-3.5-12.9-1.3-4.7-2.5-8.8-2.7-9.3-1.1-1.9-17 13.4-24.8 23.8-13.5 18-16.7 34.9-9.6 50 1.7 3.6 3.7 7.3 4.6 8.3 17.9 19.4 37.9 29.1 74.5 36.1 18.2 3.5 31.7 5.2 53 6.7 9.4.6 46.6.6 54.5 0 12.7-1 20.3-1.7 23.5-2.1 1.9-.3 6.4-.7 10-1 3.6-.3 9.7-1 13.5-1.5 3.9-.5 9-1.2 11.5-1.5 4.1-.5 21.4-3.4 30-5.1 1.9-.3 4.4-.8 5.5-.9 1.6-.3 15.9-3.4 22.5-5 40.3-9.4 86.2-25 113.3-38.6 41.1-20.7 67.3-40.5 81.2-61.3 7.5-11.3 9.9-18.8 9.9-30.1 0-8.1-.3-9.7-3.3-15.7-5.9-12.2-21.1-24.9-36.4-30.6-9.2-3.5-9.6-2.6-1.6 3.3z"/></svg>