<svg xmlns="http://www.w3.org/2000/svg" xmlns:xlink="http://www.w3.org/1999/xlink" width="288" height="640" viewBox="0 0 288 640">
  <style>
    .grey {
      fill: #b6c8d0;
    }
    .orange {
      fill: #eb8705;
    }
    .red {
      fill: #f65c51;
    }
    .white {
      fill: #ffffff;
    }
  </style>
  <!-- Disaster types -->
  <symbol viewBox="0 0 48.001 43.003" id="AC" data-source="technological-disaster">
    <path d="M27.24 26.313a7.952 7.952 0 0 1-6.48 0l-7.62 12.82a.986.986 0 0 0 .4 1.39 23.383 23.383 0 0 0 20.92.02.986.986 0 0 0 .4-1.39zm-8.61-13.23L11.5.523a.983.983 0 0 0-1.39-.37A22.48 22.48 0 0 0 0 17.953a1.01 1.01 0 0 0 1.01 1.05H16a7.97 7.97 0 0 1 2.63-5.92zM37.87.153a1 1 0 0 0-1.39.36l-7.12 12.56a7.985 7.985 0 0 1 2.64 5.93h15a1.008 1.008 0 0 0 1-1.05A22.416 22.416 0 0 0 37.87.153zM22.526 23.778a4.849 4.849 0 0 0 1.475.225 5.108 5.108 0 0 0 1.462-.212 5.014 5.014 0 1 0-2.937-.013z"></path>
  </symbol>
  <symbol viewBox="0 0 48 48" id="AV" data-source="snow-avalanche">
    <path d="M36.19 7.333a1.474 1.474 0 0 0 1.943.488l.867-.47V8.5a1.5 1.5 0 0 0 3 0V7.352l.867.47a1.474 1.474 0 0 0 1.942-.489 1.289 1.289 0 0 0-.52-1.821L43.343 5l.946-.512a1.289 1.289 0 0 0 .52-1.821 1.474 1.474 0 0 0-1.942-.488l-.867.47V1.5a1.5 1.5 0 0 0-3 0v1.148l-.867-.47a1.474 1.474 0 0 0-1.942.489 1.289 1.289 0 0 0 .52 1.821l.946.512-.946.512a1.289 1.289 0 0 0-.52 1.821zm11.42 12.373a4.233 4.233 0 0 0-2.396-2.39 4.648 4.648 0 0 0-3.47.01 1.37 1.37 0 0 0-.577 1.923 1.472 1.472 0 0 0 1.705.733 2.274 2.274 0 0 1 1.196.107 1.406 1.406 0 0 1 .771.764 2.235 2.235 0 0 1-1.249 2.892 3.21 3.21 0 0 1-2.477.01 3.097 3.097 0 0 1-1.692-1.72L32.854 7.856a1.5 1.5 0 1 0-2.709 1.288l6.536 14.108a6.017 6.017 0 0 0 3.287 3.276 6.184 6.184 0 0 0 2.365.472 6.274 6.274 0 0 0 2.41-.486 5.239 5.239 0 0 0 2.868-6.808zM21.05 7.33a2.245 2.245 0 0 0-4.1 0L.196 44.84A2.246 2.246 0 0 0 2.256 48h33.488a2.25 2.25 0 0 0 2.06-3.17zM15 22l4-9 4 9z"></path>
  </symbol>
  <symbol viewBox="0 0 34 48" id="CW" data-source="cold-wave">
    <path d="M16 6.5a6.5 6.5 0 0 0-13 0v25.077A9.498 9.498 0 1 0 19 38.5a9.45 9.45 0 0 0-3-6.923zM9.5 45a6.496 6.496 0 0 1-4.061-11.57L6 32.98V6.5a3.5 3.5 0 0 1 7 0v26.48l.561.45A6.496 6.496 0 0 1 9.5 45z"></path>
    <path d="M11 34.797V25.5a1.5 1.5 0 0 0-3 0v9.297a4 4 0 1 0 3 0zM32.5 10h-12a1.5 1.5 0 0 0 0 3h12a1.5 1.5 0 0 0 0-3z"></path>
  </symbol>
  <symbol viewBox="0 0 48 48" id="DR" data-source="drought">
    <path d="M45.5 43H35V19.954A4.038 4.038 0 0 1 39.046 16 3.958 3.958 0 0 1 43 19.954c0 .016.004.03.005.046H43v.688a3.491 3.491 0 0 0-2 3.15c0 1.75 2.867 5.435 3.412 6.119a.112.112 0 0 0 .177 0c.544-.684 3.411-4.369 3.411-6.118a3.491 3.491 0 0 0-2-3.15V20h-.005c0-.016.005-.03.005-.046A6.962 6.962 0 0 0 39.046 13 7.04 7.04 0 0 0 32 19.954V25h-2.5a4.066 4.066 0 0 0-.5.03A5.534 5.534 0 0 0 24.03 30a4.066 4.066 0 0 0-.03.5v1.188a3.491 3.491 0 0 0-2 3.15c0 1.75 2.867 5.435 3.412 6.119a.112.112 0 0 0 .177 0c.544-.684 3.411-4.369 3.411-6.118a3.491 3.491 0 0 0-2-3.15V30.5a2.5 2.5 0 0 1 2.5-2.5H32v15H2.5a2.5 2.5 0 0 0 0 5h43a2.5 2.5 0 0 0 0-5zm-33-37A1.5 1.5 0 0 0 14 4.5v-3a1.5 1.5 0 0 0-3 0v3A1.5 1.5 0 0 0 12.5 6zM11 20.5v3a1.5 1.5 0 0 0 3 0v-3a1.5 1.5 0 0 0-3 0zm8.218-12.596l2.12-2.122a1.5 1.5 0 1 0-2.12-2.12l-2.122 2.12a1.5 1.5 0 0 0 2.122 2.122zM5.782 17.096l-2.12 2.122a1.5 1.5 0 0 0 2.12 2.12l2.122-2.12a1.5 1.5 0 0 0-2.122-2.122zM19 12.5a1.5 1.5 0 0 0 1.5 1.5h3a1.5 1.5 0 0 0 0-3h-3a1.5 1.5 0 0 0-1.5 1.5zM1.5 14h3a1.5 1.5 0 0 0 0-3h-3a1.5 1.5 0 0 0 0 3zm15.596 3.096a1.5 1.5 0 0 0 0 2.122l2.122 2.12a1.5 1.5 0 0 0 2.12-2.12l-2.12-2.122a1.5 1.5 0 0 0-2.122 0zM5.782 7.904a1.5 1.5 0 0 0 2.122-2.122l-2.122-2.12a1.5 1.5 0 0 0-2.12 2.12z"></path>
    <circle cx="12.5" cy="12.5" r="4.5"></circle>
  </symbol>
  <symbol viewBox="0 0 48.019 47.996" id="EC" data-source="cyclone">
    <path d="M47.628 24.278l-.04-.07a2.972 2.972 0 0 0-4.04-1.09l-4.64 2.68a14.824 14.824 0 0 0-1.78-9.08 1.518 1.518 0 0 0-.09-.18l-.03-.04-8.67-15.02a2.957 2.957 0 0 0-4.04-1.08l-.08.04a2.975 2.975 0 0 0-1.08 4.04l2.67 4.63a14.89 14.89 0 0 0-9.25 1.88l-.11.06-14.97 8.65a2.957 2.957 0 0 0-1.08 4.04l.04.07a2.957 2.957 0 0 0 4.04 1.08l4.65-2.68a14.919 14.919 0 0 0 1.85 9.19.212.212 0 0 0 .03.07l.02.03 8.67 15.02a2.96 2.96 0 0 0 4.04 1.08l.08-.04a2.966 2.966 0 0 0 1.08-4.04l-2.67-4.63a14.742 14.742 0 0 0 8.91-1.7 2.904 2.904 0 0 0 .35-.18l.03-.02 15.03-8.67a2.975 2.975 0 0 0 1.08-4.04zm-31.4 4.22c-.01-.01-.01-.02-.02-.03a8.996 8.996 0 0 1 3.24-12.22c.02-.01.05-.03.07-.04s.03-.02.05-.03a9.003 9.003 0 0 1 12.21 3.25c.01.02.03.05.04.07s.02.03.03.05a9.012 9.012 0 0 1-3.33 12.25c-.01.01-.02.01-.03.02a9 9 0 0 1-12.26-3.32z"
     ></path>
  </symbol>
  <symbol viewBox="0 0 48 42" id="EP" data-source="epidemic">
    <path d="M48 29.493V29h-.05.05v.01V29a12.99 12.99 0 0 0-12.466-12.973c-.032-.062-.058-.127-.091-.189A12.524 12.524 0 0 0 33.54 1.116l.001-.001-.39-.399-.002.002a2.412 2.412 0 0 0-3.447.013 2.536 2.536 0 0 0-.013 3.519l-.002.002.362.369A7.013 7.013 0 0 1 32 10a8.688 8.688 0 0 1-.23 1.603 12.9 12.9 0 0 0-15.538-.002A8.655 8.655 0 0 1 16 10a6.995 6.995 0 0 1 1.95-5.373l-.042-.042.042.043.347-.367-.001-.001A2.536 2.536 0 0 0 18.29.732a2.413 2.413 0 0 0-3.456-.006l-.002.001-.006.005-.005.006-.34.348.034.035-.035-.035.007-.007-.007.007a12.513 12.513 0 0 0-1.92 14.744c-.035.064-.062.132-.095.197A12.99 12.99 0 0 0 0 29v.01V29h.05H0v.51h.001a2.499 2.499 0 0 0 4.998 0h.002L5.01 29h-.06.06a7.997 7.997 0 0 1 6.027-7.737c-.014.245-.037.488-.037.737a13.013 13.013 0 0 0 8.18 12.063A7.974 7.974 0 0 1 13 37h-.521v.002a2.498 2.498 0 0 0 0 4.996V42h.563v-.002A12.977 12.977 0 0 0 24 35.906a12.977 12.977 0 0 0 10.958 6.092V42h.563v-.002a2.498 2.498 0 0 0 0-4.996V37H35a7.974 7.974 0 0 1-6.18-2.937A13.013 13.013 0 0 0 37 22c0-.249-.023-.492-.037-.737A7.997 7.997 0 0 1 42.99 29h.06-.061l.01.51H43a2.499 2.499 0 0 0 4.998 0v-.003L48 29.5zM24 13a8.953 8.953 0 0 1 5.913 2.232c-.121.14-.24.283-.373.418a7.694 7.694 0 0 1-11.07 0c-.134-.136-.255-.28-.378-.423A8.953 8.953 0 0 1 24 13zm-9 9c0-.242.018-.48.036-.718a7.94 7.94 0 0 1 5.82 9.14A9.007 9.007 0 0 1 15 22zm12.143 8.422a7.94 7.94 0 0 1 5.82-9.14c.02.238.037.476.037.718a9.007 9.007 0 0 1-5.857 8.422z"
     ></path>
  </symbol>
  <symbol viewBox="0 0 40 48" id="EQ" data-source="earthquake">
    <path d="M39.57 18.04L20.69.27a1.017 1.017 0 0 0-1.38 0L.43 18.04a1.31 1.31 0 0 0-.43.98V47a1.003 1.003 0 0 0 1 1h13.18l8.91-8.92-8.43-7.59a1.994 1.994 0 0 1-.66-1.51 2.015 2.015 0 0 1 .7-1.5l5.36-4.59-3.47-3.48a1.974 1.974 0 0 1 0-2.82l4-4a1.994 1.994 0 0 1 2.82 2.82L20.83 19l3.58 3.59a1.974 1.974 0 0 1 .59 1.49 2.013 2.013 0 0 1-.7 1.44l-5.27 4.52 8.31 7.47a1.995 1.995 0 0 1 .07 2.9L19.82 48H39a1.003 1.003 0 0 0 1-1V19.02a1.31 1.31 0 0 0-.43-.98z"
     ></path>
  </symbol>
  <symbol viewBox="0 0 48 48" id="FF" data-source="flash-flood">
    <path d="M1.5 9h11.379l-3.44 3.44a1.5 1.5 0 1 0 2.122 2.12l6-6a1.5 1.5 0 0 0 0-2.12l-6-6a1.5 1.5 0 1 0-2.122 2.12L12.88 6H1.5a1.5 1.5 0 0 0 0 3zm46.32 3L33.16.06a.243.243 0 0 0-.32 0L18.18 12a.528.528 0 0 0-.18.38v17.71a8.734 8.734 0 0 1 3.29 1.15A4.637 4.637 0 0 0 24 32a4.626 4.626 0 0 0 2.7-.76A8.644 8.644 0 0 1 31.33 30a8.603 8.603 0 0 1 4.62 1.24 5.23 5.23 0 0 0 5.43 0A8.603 8.603 0 0 1 46 30a9.43 9.43 0 0 1 2 .2V12.38a.528.528 0 0 0-.18-.38zM46 42a8.603 8.603 0 0 0-4.62 1.24 5.23 5.23 0 0 1-5.43 0A8.603 8.603 0 0 0 31.33 42a8.644 8.644 0 0 0-4.63 1.24A4.626 4.626 0 0 1 24 44a4.637 4.637 0 0 1-2.71-.76A8.673 8.673 0 0 0 16.66 42a8.603 8.603 0 0 0-4.62 1.24 4.684 4.684 0 0 1-2.71.76 4.684 4.684 0 0 1-2.71-.76A8.603 8.603 0 0 0 2 42a2 2 0 0 0 0 4 4.683 4.683 0 0 1 2.71.76A8.604 8.604 0 0 0 9.33 48a8.603 8.603 0 0 0 4.62-1.24 4.684 4.684 0 0 1 2.71-.76 4.66 4.66 0 0 1 2.71.76A8.644 8.644 0 0 0 24 48a8.632 8.632 0 0 0 4.62-1.24 5.212 5.212 0 0 1 5.42 0 9.245 9.245 0 0 0 9.25 0A4.66 4.66 0 0 1 46 46a2 2 0 0 0 0-4zm0-8a8.59 8.59 0 0 0-4.625 1.244 5.241 5.241 0 0 1-5.423 0A8.59 8.59 0 0 0 31.326 34a8.581 8.581 0 0 0-4.623 1.244 4.692 4.692 0 0 1-2.708.756 4.696 4.696 0 0 1-2.709-.756A8.59 8.59 0 0 0 16.661 34a8.588 8.588 0 0 0-4.624 1.244A4.692 4.692 0 0 1 9.33 36a4.69 4.69 0 0 1-2.706-.755A8.577 8.577 0 0 0 2 34a2 2 0 0 0 0 4 4.691 4.691 0 0 1 2.707.756A8.58 8.58 0 0 0 9.329 40a8.588 8.588 0 0 0 4.624-1.244A4.692 4.692 0 0 1 16.661 38a4.696 4.696 0 0 1 2.71.756A8.59 8.59 0 0 0 23.994 40a8.583 8.583 0 0 0 4.624-1.245 5.236 5.236 0 0 1 5.42 0 9.22 9.22 0 0 0 9.25 0A4.702 4.702 0 0 1 46 38a2 2 0 0 0 0-4z"></path>
  </symbol>
  <symbol viewBox="0 0 48 48" id="FL" data-source="flood">
    <path d="M47.82 12L33.16.06a.243.243 0 0 0-.32 0L18.18 12a.528.528 0 0 0-.18.38v17.71a8.734 8.734 0 0 1 3.29 1.15A4.637 4.637 0 0 0 24 32a4.626 4.626 0 0 0 2.7-.76A8.644 8.644 0 0 1 31.33 30a8.603 8.603 0 0 1 4.62 1.24 5.23 5.23 0 0 0 5.43 0A8.603 8.603 0 0 1 46 30a9.43 9.43 0 0 1 2 .2V12.38a.528.528 0 0 0-.18-.38zM46 42a8.603 8.603 0 0 0-4.62 1.24 5.23 5.23 0 0 1-5.43 0A8.603 8.603 0 0 0 31.33 42a8.644 8.644 0 0 0-4.63 1.24A4.626 4.626 0 0 1 24 44a4.637 4.637 0 0 1-2.71-.76A8.673 8.673 0 0 0 16.66 42a8.603 8.603 0 0 0-4.62 1.24 4.684 4.684 0 0 1-2.71.76 4.684 4.684 0 0 1-2.71-.76A8.603 8.603 0 0 0 2 42a2 2 0 0 0 0 4 4.683 4.683 0 0 1 2.71.76A8.604 8.604 0 0 0 9.33 48a8.603 8.603 0 0 0 4.62-1.24 4.684 4.684 0 0 1 2.71-.76 4.66 4.66 0 0 1 2.71.76A8.644 8.644 0 0 0 24 48a8.632 8.632 0 0 0 4.62-1.24 5.212 5.212 0 0 1 5.42 0 9.245 9.245 0 0 0 9.25 0A4.66 4.66 0 0 1 46 46a2 2 0 0 0 0-4zm0-8a8.59 8.59 0 0 0-4.625 1.244 5.241 5.241 0 0 1-5.423 0A8.59 8.59 0 0 0 31.326 34a8.581 8.581 0 0 0-4.623 1.244 4.692 4.692 0 0 1-2.708.756 4.696 4.696 0 0 1-2.709-.756A8.59 8.59 0 0 0 16.661 34a8.588 8.588 0 0 0-4.624 1.244A4.692 4.692 0 0 1 9.33 36a4.69 4.69 0 0 1-2.706-.755A8.577 8.577 0 0 0 2 34a2 2 0 0 0 0 4 4.691 4.691 0 0 1 2.707.756A8.58 8.58 0 0 0 9.329 40a8.588 8.588 0 0 0 4.624-1.244A4.692 4.692 0 0 1 16.661 38a4.696 4.696 0 0 1 2.71.756A8.59 8.59 0 0 0 23.994 40a8.583 8.583 0 0 0 4.624-1.245 5.236 5.236 0 0 1 5.42 0 9.22 9.22 0 0 0 9.25 0A4.702 4.702 0 0 1 46 38a2 2 0 0 0 0-4z"></path>
  </symbol>
  <symbol viewBox="0 0 34 48" id="FR" data-source="fire">
    <path d="M17.43.21a.545.545 0 0 0-.86 0C13.93 3.53 0 22.46 0 30.97a17 17 0 1 0 34 0C34 22.46 20.07 3.53 17.43.21zM17 43a7.985 7.985 0 0 1-8-7.97c0-3.98 6.55-12.38 7.8-13.93a.254.254 0 0 1 .4 0c1.24 1.55 7.8 9.95 7.8 13.93A7.985 7.985 0 0 1 17 43z"
     ></path>
  </symbol>
  <symbol viewBox="0 0 34 48" id="HT" data-source="heatwave">
    <path d="M16 6.5a6.5 6.5 0 0 0-13 0v25.077A9.498 9.498 0 1 0 19 38.5a9.45 9.45 0 0 0-3-6.923zM9.5 45a6.496 6.496 0 0 1-4.061-11.57L6 32.98V6.5a3.5 3.5 0 0 1 7 0v26.48l.561.45A6.496 6.496 0 0 1 9.5 45z"></path>
    <path d="M11 34.797V8.5a1.5 1.5 0 0 0-3 0v26.297a4 4 0 1 0 3 0zM32.5 10H28V5.5a1.5 1.5 0 1 0-3 0V10h-4.5a1.5 1.5 0 0 0 0 3H25v4.5a1.5 1.5 0 0 0 3 0V13h4.5a1.5 1.5 0 0 0 0-3z"></path>
  </symbol>
  <symbol viewBox="0 0 47.992 47.989" id="IN" data-source="insect-infestation">
    <path d="M19.747 21.1l1.306 4.784a1.5 1.5 0 0 0 2.895-.79l-1.5-5.49a1.501 1.501 0 0 0-.866-.987L17 16.693v-3.531l3.722-2.047a1.502 1.502 0 0 0 .76-1.09l.5-3.3a1.5 1.5 0 0 0-2.966-.45l-.389 2.568-2.062 1.134a4.998 4.998 0 0 0-1.087-1.56l3.342-6.206A1.5 1.5 0 1 0 16.18.789l-3.388 6.29A4.973 4.973 0 0 0 12 7a4.972 4.972 0 0 0-.793.08L7.821.789A1.5 1.5 0 1 0 5.18 2.21l3.341 6.206a5.002 5.002 0 0 0-1.087 1.56L5.373 8.843l-.39-2.568a1.5 1.5 0 0 0-2.966.45l.5 3.3a1.502 1.502 0 0 0 .76 1.09l3.724 2.047v3.531l-4.582 1.924a1.501 1.501 0 0 0-.866.987l-1.5 5.49a1.5 1.5 0 1 0 2.895.79L4.254 21.1l2.747-1.153V20a5 5 0 1 0 10 0v-.053zm27.681 6.762a1.5 1.5 0 0 0-2.108.236l-1.621 2.029-2.353-.049a4.999 4.999 0 0 0-.161-1.893l5.997-3.705a1.5 1.5 0 0 0-1.576-2.552l-6.08 3.754a3.973 3.973 0 0 0-1.372-.792l.213-7.142a1.5 1.5 0 1 0-2.998-.089l-.21 7.046a5 5 0 0 0-1.72.808l-1.22-2.014.947-2.418a1.5 1.5 0 1 0-2.793-1.094l-1.217 3.108a1.497 1.497 0 0 0 .113 1.324l2.2 3.634-1.765 3.058-4.93-.624a1.5 1.5 0 0 0-1.243.423l-4.05 4.013a1.5 1.5 0 1 0 2.112 2.131l3.53-3.499 2.954.374-.027.046a5 5 0 0 0 1.83 6.83 5 5 0 0 0 6.83-1.83l.027-.046 1.8 2.372-1.263 4.806a1.5 1.5 0 1 0 2.9.763l1.45-5.513a1.496 1.496 0 0 0-.255-1.289l-3.005-3.957 1.766-3.058 4.247.088h.032a1.5 1.5 0 0 0 1.172-.563l2.083-2.608a1.5 1.5 0 0 0-.236-2.108z"></path>
  </symbol>
  <symbol viewBox="0 0 48 48" id="LS" data-source="landslide-mudslide">
    <path d="M47.61 19.706a4.233 4.233 0 0 0-2.396-2.39 4.648 4.648 0 0 0-3.47.01 1.37 1.37 0 0 0-.577 1.923 1.472 1.472 0 0 0 1.705.733 2.274 2.274 0 0 1 1.196.107 1.406 1.406 0 0 1 .771.764 2.235 2.235 0 0 1-1.249 2.892 3.21 3.21 0 0 1-2.477.01 3.097 3.097 0 0 1-1.692-1.72L32.854 7.856a1.5 1.5 0 1 0-2.709 1.288l6.536 14.108a6.017 6.017 0 0 0 3.287 3.276 6.184 6.184 0 0 0 2.365.472 6.274 6.274 0 0 0 2.41-.486 5.239 5.239 0 0 0 2.868-6.808zM21.05 7.33a2.245 2.245 0 0 0-4.1 0L.196 44.84A2.246 2.246 0 0 0 2.256 48h33.488a2.25 2.25 0 0 0 2.06-3.17zm16.092 2.184A1 1 0 0 0 38 10h5a1 1 0 0 0 .857-.486l2-4a1 1 0 0 0 0-1.028l-2-4A1 1 0 0 0 43 0h-5a1 1 0 0 0-.857.486l-2 4a1 1 0 0 0 0 1.028z"></path>
  </symbol>
  <symbol viewBox="0 0 48 48" id="MS" data-source="landslide-mudslide">
    <path d="M47.61 19.706a4.233 4.233 0 0 0-2.396-2.39 4.648 4.648 0 0 0-3.47.01 1.37 1.37 0 0 0-.577 1.923 1.472 1.472 0 0 0 1.705.733 2.274 2.274 0 0 1 1.196.107 1.406 1.406 0 0 1 .771.764 2.235 2.235 0 0 1-1.249 2.892 3.21 3.21 0 0 1-2.477.01 3.097 3.097 0 0 1-1.692-1.72L32.854 7.856a1.5 1.5 0 1 0-2.709 1.288l6.536 14.108a6.017 6.017 0 0 0 3.287 3.276 6.184 6.184 0 0 0 2.365.472 6.274 6.274 0 0 0 2.41-.486 5.239 5.239 0 0 0 2.868-6.808zM21.05 7.33a2.245 2.245 0 0 0-4.1 0L.196 44.84A2.246 2.246 0 0 0 2.256 48h33.488a2.25 2.25 0 0 0 2.06-3.17zm16.092 2.184A1 1 0 0 0 38 10h5a1 1 0 0 0 .857-.486l2-4a1 1 0 0 0 0-1.028l-2-4A1 1 0 0 0 43 0h-5a1 1 0 0 0-.857.486l-2 4a1 1 0 0 0 0 1.028z"></path>
  </symbol>
  <symbol viewBox="0 0 48 48" id="SS" data-source="storm-surge">
    <path d="M46 42a8.603 8.603 0 0 0-4.62 1.24 5.23 5.23 0 0 1-5.43 0A8.603 8.603 0 0 0 31.33 42a8.644 8.644 0 0 0-4.63 1.24A4.626 4.626 0 0 1 24 44a4.637 4.637 0 0 1-2.71-.76A8.673 8.673 0 0 0 16.66 42a8.603 8.603 0 0 0-4.62 1.24 4.683 4.683 0 0 1-2.71.76 4.684 4.684 0 0 1-2.71-.76A8.603 8.603 0 0 0 2 42a2 2 0 0 0 0 4 4.684 4.684 0 0 1 2.71.76A8.603 8.603 0 0 0 9.33 48a8.603 8.603 0 0 0 4.62-1.24 4.684 4.684 0 0 1 2.71-.76 4.66 4.66 0 0 1 2.71.76A8.644 8.644 0 0 0 24 48a8.632 8.632 0 0 0 4.62-1.24 5.212 5.212 0 0 1 5.42 0 9.245 9.245 0 0 0 9.25 0A4.66 4.66 0 0 1 46 46a2 2 0 0 0 0-4zm0-8a8.603 8.603 0 0 0-4.62 1.24 5.23 5.23 0 0 1-5.43 0A8.603 8.603 0 0 0 31.33 34a8.644 8.644 0 0 0-4.63 1.24A4.626 4.626 0 0 1 24 36a4.637 4.637 0 0 1-2.71-.76A8.673 8.673 0 0 0 16.66 34a8.603 8.603 0 0 0-4.62 1.24 4.683 4.683 0 0 1-2.71.76 4.684 4.684 0 0 1-2.71-.76A8.603 8.603 0 0 0 2 34a2 2 0 0 0 0 4 4.684 4.684 0 0 1 2.71.76A8.603 8.603 0 0 0 9.33 40a8.603 8.603 0 0 0 4.62-1.24 4.684 4.684 0 0 1 2.71-.76 4.66 4.66 0 0 1 2.71.76A8.644 8.644 0 0 0 24 40a8.632 8.632 0 0 0 4.62-1.24 5.212 5.212 0 0 1 5.42 0 9.245 9.245 0 0 0 9.25 0A4.66 4.66 0 0 1 46 38a2 2 0 0 0 0-4zM8 22h28.5a7.516 7.516 0 0 0 7.33-5.9 7.625 7.625 0 0 0 .17-1.6A7.503 7.503 0 0 0 36.5 7a7.378 7.378 0 0 0-2.71.51l-.002.001a9.497 9.497 0 0 0-18.784 1.913A4.99 4.99 0 0 0 8 14a4 4 0 0 0 0 8zm2.988 2.518l-3.464 3.464a1.768 1.768 0 0 0 2.5 2.5l3.464-3.464a1.768 1.768 0 0 0-2.5-2.5zm11.998 0l-3.465 3.464a1.768 1.768 0 0 0 2.5 2.5l3.465-3.464a1.768 1.768 0 0 0-2.5-2.5zm11.996 0l-3.464 3.464a1.768 1.768 0 0 0 2.5 2.5l3.464-3.464a1.768 1.768 0 0 0-2.5-2.5z"></path>
  </symbol>
  <symbol viewBox="0 0 47.98 48" id="ST" data-source="storm">
    <path d="M38.98 9.01a8.732 8.732 0 0 0-3.16.58l-.01.005a11.49 11.49 0 0 0-22.823 1.757 5.977 5.977 0 0 0-7.91 6.69l-.007-.002a3.81 3.81 0 0 0-.59-.04 4.5 4.5 0 0 0 0 9h34.5a9.003 9.003 0 0 0 8.83-7.24 9.297 9.297 0 0 0 .17-1.76 8.992 8.992 0 0 0-9-8.99zM28.48 37h-6.293l3.565-5.705a1.5 1.5 0 1 0-2.544-1.59l-5 8A1.5 1.5 0 0 0 19.48 40h6.293l-3.565 5.705a1.5 1.5 0 1 0 2.544 1.59l5-8A1.5 1.5 0 0 0 28.48 37z"></path>
  </symbol>
  <symbol viewBox="0 0 48.019 47.996" id="TC" data-source="cyclone">
    <path d="M47.628 24.278l-.04-.07a2.972 2.972 0 0 0-4.04-1.09l-4.64 2.68a14.824 14.824 0 0 0-1.78-9.08 1.518 1.518 0 0 0-.09-.18l-.03-.04-8.67-15.02a2.957 2.957 0 0 0-4.04-1.08l-.08.04a2.975 2.975 0 0 0-1.08 4.04l2.67 4.63a14.89 14.89 0 0 0-9.25 1.88l-.11.06-14.97 8.65a2.957 2.957 0 0 0-1.08 4.04l.04.07a2.957 2.957 0 0 0 4.04 1.08l4.65-2.68a14.919 14.919 0 0 0 1.85 9.19.212.212 0 0 0 .03.07l.02.03 8.67 15.02a2.96 2.96 0 0 0 4.04 1.08l.08-.04a2.966 2.966 0 0 0 1.08-4.04l-2.67-4.63a14.742 14.742 0 0 0 8.91-1.7 2.904 2.904 0 0 0 .35-.18l.03-.02 15.03-8.67a2.975 2.975 0 0 0 1.08-4.04zm-31.4 4.22c-.01-.01-.01-.02-.02-.03a8.996 8.996 0 0 1 3.24-12.22c.02-.01.05-.03.07-.04s.03-.02.05-.03a9.003 9.003 0 0 1 12.21 3.25c.01.02.03.05.04.07s.02.03.03.05a9.012 9.012 0 0 1-3.33 12.25c-.01.01-.02.01-.03.02a9 9 0 0 1-12.26-3.32z"
     ></path>
  </symbol>
  <symbol viewBox="0 0 48 48" id="TS" data-source="tsunami">
    <path d="M47.9 19.48l-7.76-5.37a.28.28 0 0 0-.28 0l-7.76 5.37a.204.204 0 0 0-.1.16v6.45c-.21-.01-.44-.02-.67-.02a8.674 8.674 0 0 0-4.63 1.24 4.637 4.637 0 0 1-2.703.76 6.237 6.237 0 0 1-5.997-6 5.714 5.714 0 0 1 5.5-5.895 5.142 5.142 0 0 1 2.527.658 2 2 0 1 0 1.946-3.495 9.223 9.223 0 0 0-4.473-1.163A9.714 9.714 0 0 0 14 22.07a10.262 10.262 0 0 0 9.979 9.999h.027a8.674 8.674 0 0 0 4.614-1.24 4.638 4.638 0 0 1 2.71-.76 4.702 4.702 0 0 1 2.7.75A8.391 8.391 0 0 0 38 32.05c.21.01.43.02.66.02a8.673 8.673 0 0 0 4.63-1.24 4.907 4.907 0 0 1 1.71-.68 2.905 2.905 0 0 1 .328-.049c.154-.009.307-.018.472-.02a1.272 1.272 0 0 1 .2-.01 9.43 9.43 0 0 1 2 .2V19.64a.204.204 0 0 0-.1-.16zM46 42a8.59 8.59 0 0 0-4.625 1.244 5.241 5.241 0 0 1-5.423 0A8.59 8.59 0 0 0 31.326 42a8.581 8.581 0 0 0-4.623 1.244 4.692 4.692 0 0 1-2.708.756 4.696 4.696 0 0 1-2.709-.756A8.59 8.59 0 0 0 16.661 42a8.588 8.588 0 0 0-4.624 1.244A4.692 4.692 0 0 1 9.33 44a4.69 4.69 0 0 1-2.706-.755A8.577 8.577 0 0 0 2 42a2 2 0 0 0 0 4 4.691 4.691 0 0 1 2.707.756A8.58 8.58 0 0 0 9.329 48a8.588 8.588 0 0 0 4.624-1.244A4.692 4.692 0 0 1 16.661 46a4.696 4.696 0 0 1 2.71.756A8.59 8.59 0 0 0 23.994 48a8.583 8.583 0 0 0 4.624-1.245 5.236 5.236 0 0 1 5.42 0 9.22 9.22 0 0 0 9.25 0A4.702 4.702 0 0 1 46 46a2 2 0 0 0 0-4zm0-8a8.59 8.59 0 0 0-4.625 1.244 5.241 5.241 0 0 1-5.423 0A8.59 8.59 0 0 0 31.326 34a8.581 8.581 0 0 0-4.623 1.244 4.692 4.692 0 0 1-2.708.756 4.696 4.696 0 0 1-2.709-.756A8.59 8.59 0 0 0 16.661 34a8.588 8.588 0 0 0-4.624 1.244A4.692 4.692 0 0 1 9.33 36a4.69 4.69 0 0 1-2.706-.755A8.577 8.577 0 0 0 2 34a2 2 0 0 0 0 4 4.691 4.691 0 0 1 2.707.756A8.58 8.58 0 0 0 9.329 40a8.588 8.588 0 0 0 4.624-1.244A4.692 4.692 0 0 1 16.661 38a4.696 4.696 0 0 1 2.71.756A8.59 8.59 0 0 0 23.994 40a8.583 8.583 0 0 0 4.624-1.245 5.236 5.236 0 0 1 5.42 0 9.22 9.22 0 0 0 9.25 0A4.702 4.702 0 0 1 46 38a2 2 0 0 0 0-4z"></path>
    <path d="M4.102 31.07a2 2 0 0 0 1.77-2.927A16.507 16.507 0 0 1 20.5 4a16.585 16.585 0 0 1 11.148 4.544 2 2 0 1 0 2.704-2.948A20.57 20.57 0 0 0 20.5 0 20.508 20.508 0 0 0 2.327 29.997a2.001 2.001 0 0 0 1.775 1.073z"></path>
  </symbol>
  <symbol viewBox="0 0 48 48" id="VO" data-source="volcano">
    <path d="M47.854 47.157L29.286 29.588a1.94 1.94 0 0 0-2.476-.253 4.872 4.872 0 0 1-5.62 0 1.94 1.94 0 0 0-2.476.253L.146 47.158A.494.494 0 0 0 .495 48h47.01a.494.494 0 0 0 .35-.843zM25 24.5a1.5 1.5 0 0 0 3 0l-.002-8.05a6.146 6.146 0 0 1 5.832-6.445 4.617 4.617 0 0 1 4.842 4.38 3.394 3.394 0 0 1-3.22 3.56 2.398 2.398 0 0 1-2.533-2.292 1.5 1.5 0 0 0-2.996.15A5.424 5.424 0 0 0 35.6 20.94a6.393 6.393 0 0 0 6.067-6.705A7.615 7.615 0 0 0 33.68 7.01 9.143 9.143 0 0 0 25 16.525zM14.16 11.877a1.5 1.5 0 0 0 .148-2.996 2.468 2.468 0 0 1-2.327-2.592 3.448 3.448 0 0 1 3.605-3.285 4.717 4.717 0 0 1 4.428 5.007V24.5a1.489 1.489 0 1 0 2.978 0L22.99 8.086A7.691 7.691 0 0 0 15.735.008 6.434 6.434 0 0 0 9.007 6.14a5.462 5.462 0 0 0 5.152 5.737z"></path>
  </symbol>
  <symbol viewBox="0 0 34 48" id="WF" data-source="fire">
    <path d="M17.43.21a.545.545 0 0 0-.86 0C13.93 3.53 0 22.46 0 30.97a17 17 0 1 0 34 0C34 22.46 20.07 3.53 17.43.21zM17 43a7.985 7.985 0 0 1-8-7.97c0-3.98 6.55-12.38 7.8-13.93a.254.254 0 0 1 .4 0c1.24 1.55 7.8 9.95 7.8 13.93A7.985 7.985 0 0 1 17 43z"
     ></path>
  </symbol>
  <!-- Groups -->
  <symbol id="group-disaster-types" viewBox="0 0 48 960">
    <use xlink:href="#AC" width="48" height="48" y="0" />
    <use xlink:href="#AV" width="48" height="48" y="48"/>
    <use xlink:href="#CW" width="48" height="48" y="96"/>
    <use xlink:href="#DR" width="48" height="48" y="144"/>
    <use xlink:href="#EC" width="48" height="48" y="192"/>
    <use xlink:href="#EP" width="48" height="48" y="240"/>
    <use xlink:href="#EQ" width="48" height="48" y="288"/>
    <use xlink:href="#FF" width="48" height="48" y="336"/>
    <use xlink:href="#FL" width="48" height="48" y="384"/>
    <use xlink:href="#FR" width="48" height="48" y="432"/>
    <use xlink:href="#HT" width="48" height="48" y="480"/>
    <use xlink:href="#IN" width="48" height="48" y="528"/>
    <use xlink:href="#LS" width="48" height="48" y="576"/>
    <use xlink:href="#MS" width="48" height="48" y="624"/>
    <use xlink:href="#SS" width="48" height="48" y="672"/>
    <use xlink:href="#ST" width="48" height="48" y="720"/>
    <use xlink:href="#TC" width="48" height="48" y="768"/>
    <use xlink:href="#TS" width="48" height="48" y="816"/>
    <use xlink:href="#VO" width="48" height="48" y="864"/>
    <use xlink:href="#WF" width="48" height="48" y="912"/>
  </symbol>
  <symbol id="group-disaster-types-colored" viewBox="0 0 192 960">
    <use xlink:href="#group-disaster-types" width="48" height="960" x="0" y="0" class="grey"/>
    <use xlink:href="#group-disaster-types" width="48" height="960" x="48" y="0" class="orange"/>
    <use xlink:href="#group-disaster-types" width="48" height="960" x="96" y="0" class="red"/>
    <use xlink:href="#group-disaster-types" width="48" height="960" x="144" y="0" class="white"/>
  </symbol>
  <!-- Actual content -->
  <use xlink:href="#group-disaster-types-colored" width="64" height="320"/>
  <use xlink:href="#group-disaster-types-colored" width="96" height="480" x="64"/>
  <use xlink:href="#group-disaster-types-colored" width="128" height="640" x="160"/>
</svg>
