<svg xmlns="http://www.w3.org/2000/svg" viewBox="0 0 48 48"><path d="M24,5A19,19,0,1,1,5,24,19,19,0,0,1,24,5m0-3A22,22,0,1,0,46,24,22,22,0,0,0,24,2Z" /><path d="m 10.929069,22.656769 c 6.942436,-3.024711 11.571812,-5.018779 13.888128,-5.982221 6.613564,-2.750808 7.987805,-3.22865 8.883516,-3.244432 0.197009,-0.0035 0.63749,0.04538 0.92282,0.276877 0.240922,0.195492 0.307213,0.459579 0.338936,0.644926 0.03174,0.185353 0.07122,0.607584 0.03979,0.937503 -0.358389,3.765646 -1.909142,12.903885 -2.698075,17.121475 -0.333828,1.784622 -0.991145,2.382995 -1.627508,2.44155 -1.382957,0.127262 -2.433109,-0.91395 -3.77257,-1.791986 -2.095996,-1.373947 -3.280099,-2.229236 -5.314624,-3.569961 -2.351243,-1.549436 -0.827029,-2.401028 0.512938,-3.792779 0.35068,-0.364228 6.444016,-5.90659 6.561955,-6.409366 0.01475,-0.06288 0.02845,-0.297273 -0.110809,-0.421044 -0.139247,-0.123764 -0.344767,-0.08144 -0.493071,-0.04779 -0.210222,0.04773 -3.558599,2.260865 -10.045129,6.639456 -0.950423,0.652637 -1.81129,0.970624 -2.582596,0.953961 -0.850305,-0.0184 -2.485946,-0.480775 -3.701877,-0.876027 -1.491392,-0.484795 -2.6767173,-0.741105 -2.5735023,-1.56443 0.053783,-0.428844 0.644315,-0.867415 1.7716543,-1.315721 z" /></svg>
