<svg xmlns="http://www.w3.org/2000/svg" viewBox="0 0 48 48"><path d="M 24 2 C 4.3987301 2 -5.4131983 25.696176 8.4453125 39.554688 C 22.303823 53.413199 46 43.60127 46 24 C 46 11.849736 36.150264 2 24 2 z M 33.701172 13.429688 C 33.898181 13.426187 34.337717 13.475534 34.623047 13.707031 C 34.863969 13.902523 34.931168 14.166215 34.962891 14.351562 C 34.994631 14.536915 35.033383 14.959143 35.001953 15.289062 C 34.643564 19.054709 33.09362 28.192566 32.304688 32.410156 C 31.970859 34.194778 31.312144 34.793008 30.675781 34.851562 C 29.292824 34.978825 28.243758 33.938583 26.904297 33.060547 C 24.808301 31.6866 23.624369 30.830959 21.589844 29.490234 C 19.238601 27.940798 20.761596 27.089017 22.101562 25.697266 C 22.452243 25.333038 28.546124 19.791839 28.664062 19.289062 C 28.678812 19.226183 28.691993 18.990958 28.552734 18.867188 C 28.413487 18.743423 28.208851 18.786663 28.060547 18.820312 C 27.850325 18.868043 24.502155 21.080393 18.015625 25.458984 C 17.065202 26.111621 16.2049 26.428772 15.433594 26.412109 C 14.583289 26.393709 12.9464 25.932361 11.730469 25.537109 C 10.239077 25.052314 9.0549881 24.795981 9.1582031 23.972656 C 9.2119861 23.543812 9.8023482 23.104556 10.929688 22.65625 C 17.872123 19.631539 22.50009 17.63727 24.816406 16.673828 C 31.42997 13.92302 32.805461 13.445469 33.701172 13.429688 z " /></svg>
