<svg xmlns="http://www.w3.org/2000/svg" xmlns:xlink="http://www.w3.org/1999/xlink" fill-rule="evenodd" stroke-linejoin="round" stroke-miterlimit="1.41" clip-rule="evenodd" viewBox="0 0 140 60" width="140" height="60">
  <defs>
    <linearGradient id="gradient" x2="1" gradientTransform="translate(70.36 35) scale(69.644)" gradientUnits="userSpaceOnUse">
      <stop offset="0" stop-color="#f65c51"/>
      <stop offset=".15" stop-color="#d9615e"/>
      <stop offset=".46" stop-color="#906f7f"/>
      <stop offset=".93" stop-color="#1c84b2"/>
      <stop offset="1" stop-color="#0988bb"/>
    </linearGradient>
  </defs>
  <symbol id="logo">
    <path d="M139.95 27.6c-.4-3.2-4.38-5.66-6.81-6.02.88.68 1.86 1.27 2.66 2.04a4.72 4.72 0 0 1 1.5 4.8c-.46 1.81-1.6 3.22-2.94 4.5-3.09 2.93-6.81 4.86-10.72 6.45a75.43 75.43 0 0 1-21.98 5.16A54.3 54.3 0 0 1 86.8 44c-2.8-.5-5.5-1.28-7.86-2.94-2.39-1.68-3.16-3.77-2.36-6.18l-1-3.72-.03-.03A15.7 15.7 0 0 0 71.21 36c-1.52 2.9-.95 5.66 1.62 7.77 2.32 1.9 5.09 2.82 7.97 3.45 6.12 1.37 12.3 1.34 18.5.8 6.7-.6 13.25-1.89 19.63-3.96 5.3-1.7 10.41-3.81 14.96-7.06a17.27 17.27 0 0 0 4.93-4.93 6.6 6.6 0 0 0 1.13-4.48z"/>
  </symbol>
  <symbol id="text">
    <path d="M51.13 29.08c.22 2.54 1.59 3.36 3.68 3.36 2.02 0 3.4-1 3.86-1 .7 0 1.66 1.8 1.66 2.43 0 1.6-3.95 2.3-5.75 2.3-5.8 0-8.34-3.37-8.34-8.5 0-6.3 3.2-8.73 7.77-8.73 5.03 0 6.91 3.8 6.91 8.25 0 .55-1.2 1.89-1.63 1.89h-8.16zm-35.31 0c.22 2.54 1.59 3.36 3.68 3.36 2.02 0 3.4-1 3.86-1 .7 0 1.66 1.8 1.66 2.43 0 1.6-3.95 2.3-5.75 2.3-5.8 0-8.34-3.37-8.34-8.5.02-6.3 3.2-8.73 7.77-8.73 5.02 0 6.9 3.8 6.9 8.25 0 .55-1.2 1.89-1.63 1.89h-8.15zm88.19 0c.22 2.54 1.58 3.36 3.68 3.36 2.02 0 3.4-1 3.86-1 .7 0 1.66 1.8 1.66 2.43 0 1.6-3.96 2.3-5.75 2.3-5.8 0-8.34-3.37-8.34-8.5 0-6.3 3.2-8.73 7.77-8.73 5.02 0 6.9 3.8 6.9 8.25 0 .55-1.2 1.89-1.63 1.89h-8.15zm14.88 6.88h-.39c-1.34 0-1.9-.34-1.9-1.02V12.83h.02c0-.68.56-1.02 1.9-1.02h.9c1.33 0 1.9.34 1.9 1.02v7.09c.68-.48 1.75-1 3.25-1 4.32 0 6.75 3.38 6.75 8.59 0 5.57-2.52 8.63-5.98 8.63a4.76 4.76 0 0 1-4.27-2.38l-.32 1.36c-.16.7-.84.84-1.86.84zM28.36 12.83c0-.68.57-1.02 1.9-1.02h.9c1.33 0 1.9.34 1.9 1.02v18.2c0 .95.32 1.36 1.16 1.36.3 0 .68-.13.86-.13.64 0 1 2.04 1 2.3 0 1.47-2.06 1.56-3.06 1.56-3 0-4.66-1.64-4.66-5.18V12.83zm38.6 23.1h-.88c-1.34 0-1.9-.33-1.9-1.01V22.94h-.58c-.68 0-.95-.48-.95-1.59v-.55c0-1.1.3-1.59.95-1.59h.57v-2.4c0-3.55 1.66-5.19 4.66-5.19 1.02 0 3.2.1 3.2 1.57 0 .25-.34 2.3-1 2.3-.22 0-.68-.14-1-.14-.84 0-1.16.41-1.16 1.36v2.46h9.68c.32 0 .55.1.7.32.13.09.22.2.26.31l2.52 9.84 2.43-9.84c.1-.45.73-.68 1.75-.68h.77c.9 0 1.66.23 1.75.69l2.37 9.83 2.59-9.84c.13-.45.72-.68 1.75-.68h.13c1.37 0 1.98.32 1.98.84 0 .14-.02.3-.07.48L93.71 35.3c-.14.46-.86.68-1.75.68H90.4c-1.02 0-1.63-.22-1.75-.68l-2.3-8.97-2.17 8.97c-.1.46-.87.68-1.75.68h-1.57c-1.05 0-1.64-.22-1.75-.68l-3.38-12.4h-6.85v12.02c0 .68-.56 1.02-1.9 1.02zM.4 24.84c0-3.2-.39-3.87-.39-4.5 0-.77 2.77-1.02 3.57-1.02 1.02 0 1.09 1.27 1.27 2.06.68-1.2 1.64-2.43 3.48-2.43 1.56 0 1.81 1.1 1.81 1.73 0 .61-.34 2.68-1 2.68-.45 0-.86-.25-1.5-.25-1.31 0-2.18.95-2.54 1.59v10.25c0 .68-.57 1.02-1.9 1.02h-.9c-1.34 0-1.9-.34-1.9-1.02V24.83zm40.7 11.13h-.9c-1.33 0-1.9-.34-1.9-1.02v-14.8c0-.68.57-1.02 1.9-1.02h.9c1.33 0 1.9.34 1.9 1.03v14.79c0 .68-.57 1.02-1.9 1.02zm82.89-3.66c1.75 0 2.59-1.66 2.59-4.77 0-3.2-.95-4.86-2.98-4.86-1 0-1.73.32-2.23.61v7.14c.57.97 1.4 1.88 2.62 1.88zM56.3 25.9c0-1.87-.7-3.23-2.3-3.23-1.34 0-2.5.77-2.88 3.22h5.18zm-35.3 0c0-1.87-.7-3.23-2.29-3.23-1.34 0-2.5.77-2.88 3.22h5.18zm88.18 0c0-1.87-.7-3.23-2.3-3.23-1.34 0-2.5.77-2.88 3.22h5.18zm-68.1-9.46h-.9c-1.33 0-1.9-.34-1.9-1.02v-2.6c0-.67.57-1.01 1.9-1.01h.9c1.33 0 1.9.34 1.9 1.02v2.59c0 .68-.57 1.02-1.9 1.02z"/>
  </symbol>
  <!-- Groups -->
  <symbol id="colored" viewBox="0 0 140 60">
    <use xlink:href="#logo" fill="url(#gradient)"/>
    <use xlink:href="#text" fill="#404040"/>
  </symbol>
  <!-- Actual content -->
  <use xlink:href="#colored" x="0" y="0" width="140" height="60"/>
</svg>
