<svg xmlns="http://www.w3.org/2000/svg" viewBox="0 0 44 36" id="chat" data-source="custom-chat"><path d="M36 0H8a8 8 0 0 0-8 8v12a8 8 0 0 0 8 8h16l7.8 7.8c.4.5 1.2.1 1.2-.5V28h3a8 8 0 0 0 8-8V8a8 8 0 0 0-8-8Zm-9.8 13.6 1.4-1.4c.2-.3.6-.3.8 0l1.4 1.4c.3.2.3.6 0 .8l-1.4 1.4c-.2.3-.6.3-.8 0l-1.4-1.4a.6.6 0 0 1 0-.8Zm13.2 7.3-2.1.8a1 1 0 0 0-.6.6l-.8 2a1 1 0 0 1-1.8 0l-.8-2a1 1 0 0 0-.6-.6l-2-.8c-1-.3-1-1.5 0-1.8l2-.8c.3 0 .5-.3.6-.6l.8-2a1 1 0 0 1 1.8 0l.8 2c0 .3.3.5.6.6l2 .8c1 .3 1 1.5 0 1.8Z"/></svg>
