<svg xmlns="http://www.w3.org/2000/svg" viewBox="0 0 48 41.996" id="thumbs-up" data-source="custom-thumbs-up"><path d="M43 21.996h.798c2.109 0 4.007-1.54 4.187-3.641a4.002 4.002 0 0 0-3.986-4.356H27.996c1.058-2.99 1.763-6.06 1.982-9.141.428-4.895-6.306-6.81-8.485-2.34-1.743 3.698-4.078 6.815-6.929 9.39a33.408 33.408 0 0 1-2.024 1.676c-.35.27-.781.415-1.223.415H.5a.5.5 0 0 0-.5.5v23.99a.5.5 0 0 0 .5.5l6.321.01.35.064 7.744 2.901.176.032h22.744c1.48 0 2.86-.995 3.115-2.452A3.008 3.008 0 0 0 38 35.996h2.295c1.383 0 2.72-.715 3.338-1.952 1.284-2.567-1.203-5.048-3.634-5.048h3.28c1.405 0 2.775-.722 3.382-1.989 1.221-2.55-1.245-5.01-3.662-5.01Z" /></svg>
