<svg xmlns="http://www.w3.org/2000/svg" viewBox="0 0 48 41.996" id="thumbs-down" data-source="custom-thumbs-down"><path d="M43 20h.798c2.109 0 4.007 1.54 4.187 3.642a4.002 4.002 0 0 1-3.986 4.355H27.996c1.058 2.99 1.763 6.06 1.982 9.141.428 4.895-6.306 6.81-8.485 2.34-1.743-3.698-4.078-6.815-6.929-9.39a33.408 33.408 0 0 0-2.024-1.676c-.35-.27-.781-.415-1.223-.415H.5a.5.5 0 0 1-.5-.5V3.507a.5.5 0 0 1 .5-.5l6.321-.01.35-.064L14.914.032 15.091 0h22.744c1.48 0 2.86.995 3.115 2.453A3.008 3.008 0 0 1 38 6h2.295c1.383 0 2.72.715 3.338 1.952C44.918 10.52 42.431 13 40 13h3.28c1.405 0 2.775.722 3.382 1.989C47.883 17.539 45.417 20 43 20Z" /></svg>
