<?xml version="1.0" encoding="UTF-8" standalone="no"?>
<svg xmlns="http://www.w3.org/2000/svg" viewBox="0 0 48 48">
  <g fill="none" fill-rule="evenodd">
    <path fill="#4296a6" d="M17.093 1.025c-.662 0-1.322.263-1.915.527-.661.266-1.254.53-1.913.859a25.916 25.916 0 0 0-3.63 2.31c-1.123.86-2.047 1.782-3.035 2.772-.463.526-.926.923-1.123 1.649-.198.66-.198 1.254-.133 1.912.263 0 .924-1.186 1.123-1.385.461-.527.859-1.054 1.385-1.583.925-.923 1.848-1.847 2.97-2.639 1.188-.859 2.376-1.649 3.695-2.245.464-.197 1.386-.395 1.652-.856.131-.264.263-.463.461-.661.067-.132.596-.593.463-.66-.07 0 .064 0 0 0z"/>
    <path fill="#a2dcea" d="M43.355 8.942c-.593-.658-1.187-1.385-1.781-2.044-.726-.726-1.451-1.386-2.245-1.979-1.317-1.122-2.702-1.848-4.221-2.64-1.586-.792-3.17-1.582-4.952-1.782-.79-.132-1.65-.065-2.508 0-.857.132-2.046.33-2.31.527-.526.53.264.794.662.99.66.267 1.254.597 1.847.86 1.254.596 2.31 1.519 3.368 2.377.79.726 1.516 1.45 2.176 2.245.526.591 1.32 1.977 2.178 1.846-.198 0 .132.198.067.066 0 .33 2.439-.527 2.705-.596.461-.13.924-.263 1.452-.328.197-.067.923-.132 1.65-.067.33 0 .79.198 1.055.263.198.07 1.254.991 1.453.991 0-.131-.527-.66-.596-.726-.065-.064.069.07 0 0z"/>
    <path fill="#4296a6" d="M44.346 11.32c-.395-.462-.79-.924-1.255-1.452-.395-.461-.989-.99-1.319-1.452.726.133 1.518.526 1.913.924.266.263.529.66.66 1.056.067.197.527 1.317 0 .923-.065-.066.067.065 0 0zM15.178 44.58c-.133-.133-.661-.263-.793-.33-.263-.132-.593-.263-.859-.462-.592-.33-1.186-.66-1.78-1.056-.922-.593-1.847-1.32-2.703-2.046-.991-.859-1.915-1.912-2.707-2.97-.198-.263-.33-.526-.526-.724-.135-.133-.333-.596-.53-.661-.131-.065-.463 0-.596 0-.196 0-.263-.065-.46-.132-.066 0-.33-.132-.396-.067-.132.333.726 1.386.924 1.65.33.462.726.925 1.123 1.385.725.991 1.649 1.916 2.638 2.707 1.056.86 2.112 1.782 3.299 2.442.332.198.66.396 1.057.596.263.13.661.46.991.526.463.065 1.123-.463 1.518-.66-.066-.134-.132-.134-.197-.199 0-.066.065 0 0 0zM47.91 28.414c0-.069 0-.069-.067-.133-.2.198-.332.462-.595.593-.197.133-.527.199-.66.33-.132.133-.132 0-.198.264-.064.2-.13.397-.13.596-.066.33-.199.593-.33.922a29.063 29.063 0 0 1-1.386 3.299 18.32 18.32 0 0 1-2.176 3.367c-.86 1.056-1.85 1.98-2.708 2.97.596 0 1.188.263 1.782 0 .596-.266 1.123-1.122 1.584-1.585.86-.991 1.584-2.179 2.245-3.299.592-1.057 1.12-2.18 1.65-3.367.328-.66.526-1.451.724-2.176.132-.53.397-1.255.264-1.783 0 0 .066.065 0 0z"/>
    <path fill="#2c6182" d="M47.117 22.607c-.065-2.509-.66-5.017-1.584-7.327-.526-1.32-1.187-2.574-1.912-3.761-.333-.53-.661-.993-1.056-1.52-.333-.462-.726-1.123-1.254-1.452-.33-.263-1.123-.066-1.584 0-.66.132-1.255.264-1.848.462-.464.13-.859.328-1.255.46-.397.133-.793 0-1.123-.065-.923-.33-1.45-1.254-2.045-1.913a49.326 49.326 0 0 0-1.848-1.981c-1.056-.923-2.178-1.848-3.43-2.574a19.21 19.21 0 0 0-1.98-.923c-.461-.194-1.386-.46-.79-.988-2.18 0-4.227.132-6.337.596-1.98.46-3.761 1.251-5.544 2.176-1.714.924-3.363 2.18-4.818 3.496-.658.596-1.253 1.32-1.846 2.047-.33.33-.596.726-.86 1.123-.196.263-.526.593-.592.923.33 0 .859-.527 1.122-.66.462-.33 1.053-.527 1.583-.79a21.19 21.19 0 0 1 2.838-1.189c.924-.266 2.045-.926 3.035-.794 1.189.132.66 1.386.596 2.112-.263 2.047-.333 4.092-.133 6.14.065.858.131 1.648.33 2.508.066.46.131.922.263 1.385.066.46.263.857.198 1.317-.132 1.255-1.188 1.652-2.245 1.915-.328.067-3.496.793-3.43.991 0-.067-2.375.79-2.64.923-.923.33-1.78.793-2.573 1.254-.66.396-1.386.793-1.848 1.386-.396.396-.198.793-.066 1.32.131.595.33 1.188.526 1.781a22.195 22.195 0 0 0 2.841 5.742c1.054 1.583 2.374 3.167 3.825 4.354 1.719 1.386 3.631 2.904 5.742 3.631-.99-1.057-1.98-2.047-2.837-3.17-.462-.592-.86-1.187-1.32-1.847a4.262 4.262 0 0 1-.527-.924c-.133-.263.593-1.056.859-1.056.723 0 1.516-.593 2.242-.725 1.847-.332 3.761-.792 5.477-1.519.86-.33 1.65-.79 2.508-1.122.79-.329 1.913-.263 2.509.463.46.526.724 1.386 1.122 1.982.527.79.988 1.649 1.516 2.439a24.995 24.995 0 0 0 3.432 4.025c.726.661 1.517 1.255 2.375 1.584.527.199.793 0 1.254-.198l1.583-.79c3.431-1.915 6.467-4.687 8.446-8.051 2.179-4.224 3.234-8.514 3.102-13.2 0-.332 0 1.12 0 0zm-32.335-9.572v.461zm0 .66zm.066 1.517v-.13.131ZM3.428 26.958c0 .07 0 .07.07.135 0-.067 0-.133-.07-.133zm11.683-6.398v.065c.067 0 0 0 0-.067zm29.103 7.788c-.33 1.253-.396 3.365-1.65 4.091-.595.33-1.32.065-1.912-.066-.727-.198-1.52-.33-2.245-.462-4.753-1.056-9.504-1.847-14.32-2.706-.528-.065-1.057-.197-1.585-.264-.66-.066-1.386-.131-1.979-.396-1.32-.593-1.188-1.912-.924-3.035a64.338 64.338 0 0 0 1.386-7.127c.131-1.054.33-2.11.461-3.232.135-.991 0-2.377.926-3.035 1.056-.793 2.903-.2 4.026 0 1.254.263 2.573.46 3.827.725 2.772.53 5.544 1.255 8.249 2.047a51.33 51.33 0 0 1 4.487 1.584c.596.198 1.254.396 1.584.924.527.66.66 1.584.596 2.442.13.328-.266 5.673-.926 8.509z"/>
    <path fill="#a2dcea" d="M45.27 18.843c-.067-.66-.263-1.32-.86-1.781-.46-.398-1.252-.596-1.78-.794-1.254-.527-2.574-.924-3.894-1.32-2.509-.792-5.014-1.385-7.59-1.912-1.25-.266-2.505-.464-3.759-.727l-2.176-.397c-.596-.131-1.322-.263-1.915-.198-1.452.2-1.517 1.52-1.715 2.641-.134 1.056-.264 2.179-.463 3.235-.264 1.32-.462 2.639-.725 3.96-.067.394-1.123 5.344-1.056 5.543.131.593.526 1.187 1.122 1.385.594.264 1.32.33 1.913.395.66.067 1.254.264 1.912.33 1.321.264 2.707.463 4.093.726.529.134 2.378.397 2.708.463.263.065 2.112.395 2.64.527l1.977.396c.793.133 1.65.33 2.442.463.395.065.79.197 1.186.263.198.067.463.067.66.132.396.067.263.067.463-.263-.263.461.131.396.526.461.333.067.727.264 1.058.198.658-.069 1.053-.727 1.316-1.255.596-1.32.793-2.903 1.058-4.356.198-1.251.461-2.439.593-3.693.2-1.32.464-2.97.266-4.42-.067-.2 0 .328 0 0zm-25.541 6.73zm-4.75-5.015c-.858-3.496-1.122-7.455-.462-11.02.07-.396.266-.859.07-1.254-.2-.461-.728-.461-1.19-.461-1.056.131-2.112.593-3.101.99-1.784.725-3.763 1.585-5.215 2.707-1.584 1.186-2.904 2.572-3.498 4.551-.66 2.046-.99 4.027-1.19 6.14-.13 1.78 0 3.694.333 5.473.066.333.13 1.19.395 1.456.199.196.132.13.33-.134.132-.263.264-.526.462-.726.463-.596 1.056-1.056 1.715-1.517 1.85-1.256 4.093-1.982 6.203-2.642 1.19-.396 2.442-.66 3.696-.99 1.056-.395 1.783-1.385 1.453-2.574 0 0 .065.263 0 0zm19.336 24.616c-1.979-.132-3.696-1.518-5.017-2.97a27.845 27.845 0 0 1-3.825-5.014c-.792-1.32-1.585-3.761-3.63-3.233-.925.263-1.848.856-2.706 1.186-1.122.463-2.31.924-3.498 1.188-.856.198-1.714.396-2.572.463l-2.375.198c-.924.065-.596 1.122-.263 1.715a15.16 15.16 0 0 0 1.714 2.509c2.442 3.1 5.345 6.003 9.438 6.4a24.4 24.4 0 0 0 1.584.131h.79c1.255 0 2.443-.13 3.63-.263 1.188-.13 2.442-.395 3.498-.79.527-.067 3.562-1.056 3.233-1.519-.131 0 .067.067 0 0z"/>
  </g>
</svg>
