<?xml version="1.0" encoding="UTF-8" standalone="no"?>
<svg
   viewBox="0 0 48 48"
   version="1.1"
   id="svg9"
   sodipodi:docname="hid-logo.svg"
   inkscape:version="1.3.2 (091e20e, 2023-11-25)"
   xmlns:inkscape="http://www.inkscape.org/namespaces/inkscape"
   xmlns:sodipodi="http://sodipodi.sourceforge.net/DTD/sodipodi-0.dtd"
   xmlns="http://www.w3.org/2000/svg"
   xmlns:svg="http://www.w3.org/2000/svg">
  <defs
     id="defs9" />
  <sodipodi:namedview
     id="namedview9"
     pagecolor="#ffffff"
     bordercolor="#666666"
     borderopacity="1.0"
     inkscape:showpageshadow="2"
     inkscape:pageopacity="0.0"
     inkscape:pagecheckerboard="0"
     inkscape:deskcolor="#d1d1d1"
     inkscape:zoom="2.884"
     inkscape:cx="124.82663"
     inkscape:cy="17.510402"
     inkscape:window-width="1632"
     inkscape:window-height="480"
     inkscape:window-x="654"
     inkscape:window-y="373"
     inkscape:window-maximized="0"
     inkscape:current-layer="svg9" />
  <g
     id="g8"
     style="fill:none;fill-rule:evenodd"
     transform="matrix(1.3858349,0,0,1.3858349,-0.13275214,-0.16255464)">
    <path
       d="m 12.43,0.857 c -0.478,0 -0.954,0.19 -1.382,0.38 -0.477,0.192 -0.905,0.382 -1.38,0.62 -0.906,0.476 -1.81,1.048 -2.62,1.667 -0.81,0.62 -1.477,1.286 -2.19,2 C 4.524,5.904 4.19,6.19 4.048,6.714 3.905,7.19 3.905,7.619 3.952,8.094 c 0.19,0 0.667,-0.856 0.81,-1 0.333,-0.38 0.62,-0.76 1,-1.142 0.667,-0.666 1.333,-1.333 2.143,-1.904 0.857,-0.62 1.714,-1.19 2.666,-1.62 0.335,-0.142 1,-0.285 1.192,-0.618 0.095,-0.19 0.19,-0.334 0.333,-0.477 0.048,-0.095 0.43,-0.428 0.334,-0.476 -0.05,0 0.046,0 0,0 z"
       fill="#4296a6"
       id="path4" />
    <path
       d="M 31.38,6.57 C 30.952,6.095 30.524,5.57 30.095,5.095 29.571,4.571 29.048,4.095 28.475,3.667 27.525,2.857 26.525,2.333 25.429,1.762 24.285,1.19 23.142,0.62 21.856,0.476 c -0.57,-0.095 -1.19,-0.047 -1.81,0 -0.618,0.095 -1.476,0.238 -1.666,0.38 -0.38,0.382 0.19,0.573 0.477,0.715 0.476,0.192 0.905,0.43 1.333,0.62 0.905,0.43 1.667,1.096 2.43,1.715 0.57,0.524 1.094,1.047 1.57,1.62 0.38,0.427 0.953,1.427 1.572,1.332 -0.143,0 0.095,0.143 0.048,0.048 0,0.238 1.76,-0.38 1.952,-0.43 0.333,-0.094 0.667,-0.19 1.048,-0.237 0.142,-0.048 0.666,-0.095 1.19,-0.048 0.238,0 0.57,0.143 0.762,0.19 0.143,0.05 0.905,0.715 1.048,0.715 0,-0.095 -0.38,-0.476 -0.43,-0.524 -0.047,-0.046 0.05,0.05 0,0 z"
       fill="#a2dcea"
       id="path5" />
    <path
       d="M 32.095,8.286 C 31.81,7.952 31.525,7.619 31.19,7.238 30.905,6.905 30.476,6.524 30.238,6.19 c 0.524,0.096 1.095,0.38 1.38,0.667 0.192,0.19 0.382,0.476 0.477,0.762 0.048,0.142 0.38,0.95 0,0.666 -0.047,-0.048 0.048,0.047 0,0 z m -21.047,24 C 10.952,32.19 10.571,32.096 10.476,32.048 10.286,31.952 10.048,31.858 9.856,31.714 9.429,31.476 9,31.238 8.571,30.952 7.906,30.524 7.239,30 6.621,29.476 5.906,28.856 5.239,28.096 4.668,27.333 4.525,27.143 4.43,26.953 4.288,26.81 4.191,26.714 4.048,26.38 3.906,26.333 c -0.095,-0.047 -0.334,0 -0.43,0 -0.142,0 -0.19,-0.047 -0.332,-0.095 -0.048,0 -0.238,-0.095 -0.286,-0.048 -0.095,0.24 0.524,1 0.667,1.19 0.238,0.334 0.524,0.668 0.81,1 0.523,0.715 1.19,1.382 1.904,1.953 0.762,0.62 1.524,1.286 2.38,1.762 0.24,0.143 0.477,0.286 0.763,0.43 0.19,0.094 0.477,0.332 0.715,0.38 0.334,0.047 0.81,-0.334 1.095,-0.476 -0.047,-0.097 -0.095,-0.097 -0.142,-0.144 0,-0.048 0.047,0 0,0 z M 34.667,20.62 c 0,-0.05 0,-0.05 -0.048,-0.096 -0.144,0.143 -0.24,0.333 -0.43,0.428 -0.142,0.096 -0.38,0.143 -0.476,0.238 -0.095,0.096 -0.095,0 -0.143,0.19 -0.046,0.144 -0.094,0.287 -0.094,0.43 -0.047,0.238 -0.143,0.428 -0.238,0.666 -0.286,0.81 -0.62,1.62 -1,2.38 -0.428,0.858 -0.952,1.668 -1.57,2.43 -0.62,0.762 -1.335,1.428 -1.954,2.143 0.43,0 0.857,0.19 1.286,0 0.43,-0.192 0.81,-0.81 1.143,-1.144 0.62,-0.715 1.143,-1.572 1.62,-2.38 0.427,-0.763 0.808,-1.573 1.19,-2.43 0.237,-0.476 0.38,-1.047 0.523,-1.57 0.095,-0.382 0.286,-0.906 0.19,-1.287 0,0 0.048,0.047 0,0 z"
       fill="#4296a6"
       id="path6" />
    <path
       d="M 34.095,16.43 C 34.048,14.62 33.619,12.81 32.952,11.143 32.572,10.19 32.095,9.286 31.572,8.429 31.332,8.047 31.095,7.713 30.81,7.332 30.57,6.999 30.286,6.522 29.905,6.285 c -0.238,-0.19 -0.81,-0.048 -1.143,0 -0.476,0.095 -0.905,0.19 -1.333,0.333 -0.335,0.094 -0.62,0.237 -0.906,0.332 -0.286,0.096 -0.572,0 -0.81,-0.047 C 25.047,6.665 24.666,5.998 24.237,5.523 23.809,5.046 23.38,4.569 22.904,4.093 22.142,3.427 21.332,2.76 20.428,2.236 20,2 19.475,1.762 19,1.57 18.667,1.43 18,1.238 18.43,0.857 c -1.573,0 -3.05,0.095 -4.573,0.43 -1.428,0.332 -2.714,0.903 -4,1.57 C 8.62,3.524 7.43,4.43 6.38,5.38 5.905,5.81 5.476,6.333 5.048,6.857 4.81,7.095 4.618,7.381 4.428,7.667 4.286,7.857 4.048,8.095 4,8.333 4.238,8.333 4.62,7.953 4.81,7.857 5.143,7.619 5.57,7.477 5.952,7.287 6.619,6.952 7.286,6.667 8,6.429 8.667,6.237 9.476,5.761 10.19,5.856 c 0.858,0.095 0.477,1 0.43,1.524 -0.19,1.477 -0.24,2.953 -0.096,4.43 0.047,0.62 0.095,1.19 0.238,1.81 0.048,0.332 0.095,0.666 0.19,1 0.048,0.332 0.19,0.618 0.143,0.95 C 11,16.476 10.238,16.762 9.475,16.952 9.238,17 6.952,17.524 7,17.667 c 0,-0.048 -1.714,0.57 -1.905,0.666 -0.666,0.238 -1.285,0.572 -1.857,0.905 -0.476,0.286 -1,0.572 -1.333,1 -0.286,0.286 -0.143,0.572 -0.048,0.952 0.095,0.43 0.238,0.858 0.38,1.286 0.477,1.476 1.192,2.905 2.05,4.143 0.76,1.142 1.713,2.285 2.76,3.142 1.24,1 2.62,2.095 4.143,2.62 C 10.476,31.618 9.762,30.904 9.143,30.094 8.81,29.666 8.523,29.237 8.19,28.761 8.048,28.571 7.905,28.331 7.81,28.094 c -0.096,-0.19 0.428,-0.762 0.62,-0.762 0.522,0 1.094,-0.428 1.618,-0.523 1.333,-0.24 2.714,-0.572 3.952,-1.096 0.62,-0.238 1.19,-0.57 1.81,-0.81 0.57,-0.237 1.38,-0.19 1.81,0.334 0.332,0.38 0.523,1 0.81,1.43 0.38,0.57 0.713,1.19 1.094,1.76 0.714,1.048 1.57,2.048 2.476,2.905 0.524,0.477 1.095,0.905 1.714,1.143 0.38,0.143 0.572,0 0.905,-0.143 l 1.142,-0.57 c 2.476,-1.382 4.667,-3.382 6.095,-5.81 1.572,-3.048 2.333,-6.143 2.238,-9.524 0,-0.24 0,0.808 0,0 z M 10.762,9.523 v 0.333 z m 0,0.476 z m 0.048,1.095 V 11 11.095 Z M 2.57,19.57 c 0,0.05 0,0.05 0.05,0.097 0,-0.048 0,-0.096 -0.05,-0.096 z M 11,14.953 V 15 c 0.048,0 0,0 0,-0.048 z m 21,5.62 c -0.238,0.904 -0.286,2.428 -1.19,2.952 -0.43,0.238 -0.953,0.047 -1.38,-0.048 -0.525,-0.143 -1.097,-0.238 -1.62,-0.333 -3.43,-0.762 -6.858,-1.333 -10.334,-1.953 -0.38,-0.047 -0.762,-0.142 -1.143,-0.19 -0.476,-0.048 -1,-0.095 -1.428,-0.286 -0.953,-0.428 -0.857,-1.38 -0.667,-2.19 0.43,-1.667 0.762,-3.43 1,-5.143 0.095,-0.76 0.238,-1.523 0.333,-2.332 0.097,-0.715 0,-1.715 0.668,-2.19 0.762,-0.572 2.095,-0.144 2.905,0 0.905,0.19 1.857,0.332 2.762,0.523 2,0.382 4,0.906 5.952,1.477 1.095,0.333 2.19,0.714 3.238,1.143 0.43,0.143 0.905,0.286 1.143,0.667 0.38,0.476 0.476,1.143 0.43,1.762 0.094,0.237 -0.192,4.094 -0.668,6.14 z"
       fill="#2c6182"
       id="path7" />
    <path
       d="m 32.762,13.714 c -0.048,-0.476 -0.19,-0.952 -0.62,-1.285 -0.332,-0.287 -0.904,-0.43 -1.285,-0.573 -0.905,-0.38 -1.857,-0.667 -2.81,-0.952 -1.81,-0.572 -3.618,-1 -5.476,-1.38 C 21.668,9.332 20.763,9.189 19.858,8.999 l -1.57,-0.286 c -0.43,-0.095 -0.954,-0.19 -1.382,-0.143 -1.048,0.144 -1.095,1.097 -1.238,1.906 -0.096,0.762 -0.19,1.572 -0.334,2.334 -0.19,0.952 -0.333,1.904 -0.523,2.857 -0.048,0.285 -0.81,3.857 -0.762,4 0.095,0.428 0.38,0.857 0.81,1 0.428,0.19 0.952,0.238 1.38,0.285 0.476,0.048 0.905,0.19 1.38,0.238 0.953,0.19 1.953,0.334 2.953,0.524 0.382,0.096 1.716,0.286 1.954,0.334 0.19,0.047 1.524,0.285 1.905,0.38 l 1.427,0.286 c 0.572,0.096 1.19,0.238 1.762,0.334 0.285,0.047 0.57,0.142 0.856,0.19 0.143,0.048 0.334,0.048 0.476,0.095 0.286,0.048 0.19,0.048 0.334,-0.19 -0.19,0.333 0.095,0.286 0.38,0.333 0.24,0.048 0.524,0.19 0.763,0.143 0.475,-0.05 0.76,-0.525 0.95,-0.906 0.43,-0.952 0.572,-2.095 0.763,-3.143 0.143,-0.903 0.333,-1.76 0.428,-2.665 0.144,-0.953 0.335,-2.143 0.192,-3.19 -0.048,-0.144 0,0.237 0,0 z m -18.43,4.857 z M 10.905,14.952 C 10.285,12.429 10.095,9.572 10.571,7 10.621,6.714 10.763,6.38 10.621,6.095 10.477,5.762 10.096,5.762 9.763,5.762 9.001,5.857 8.239,6.19 7.525,6.476 6.238,7 4.81,7.62 3.762,8.43 2.619,9.286 1.667,10.286 1.238,11.714 0.762,13.19 0.524,14.62 0.38,16.144 c -0.094,1.285 0,2.666 0.24,3.95 0.047,0.24 0.094,0.858 0.285,1.05 0.143,0.142 0.095,0.094 0.238,-0.096 0.095,-0.19 0.19,-0.38 0.333,-0.524 0.334,-0.43 0.762,-0.762 1.238,-1.095 1.334,-0.906 2.953,-1.43 4.476,-1.906 0.858,-0.286 1.762,-0.476 2.667,-0.714 0.762,-0.286 1.286,-1 1.048,-1.858 0,0 0.047,0.19 0,0 z m 13.952,17.762 c -1.428,-0.095 -2.667,-1.095 -3.62,-2.143 -1.047,-1.094 -2,-2.332 -2.76,-3.618 -0.572,-0.952 -1.144,-2.714 -2.62,-2.333 -0.667,0.19 -1.333,0.618 -1.952,0.856 -0.81,0.334 -1.667,0.667 -2.524,0.857 -0.618,0.143 -1.237,0.286 -1.856,0.334 L 7.811,26.81 c -0.667,0.047 -0.43,0.81 -0.19,1.238 0.332,0.62 0.76,1.238 1.237,1.81 1.762,2.237 3.857,4.332 6.81,4.618 0.333,0.048 1.095,0.095 1.143,0.095 h 0.57 c 0.906,0 1.763,-0.094 2.62,-0.19 0.857,-0.094 1.762,-0.285 2.524,-0.57 0.38,-0.048 2.57,-0.762 2.333,-1.096 -0.095,0 0.048,0.048 0,0 z"
       fill="#a2dcea"
       id="path8" />
  </g>
</svg>
