<svg xmlns="http://www.w3.org/2000/svg" id="svg1" version="1.1" viewBox="0 0 48 48">
  <defs id="defs1">
    <style id="style1">
      .c{fill:#fff;stroke-width:0}
    </style>
  </defs>
  <g id="g106" image-rendering="optimizeSpeed" transform="matrix(.4391 0 0 .44087 -2.29 4)">
    <path id="path5" d="M51.195 38.84c-.604-7.735 11.014-12.067 15.602-5.752 4.345 4.8 1.022 14.198-5.67 14.462 2.928-2.827 8.638-5.248 6.195-10.867-1.352-6.759-11.524-7.628-14.107-1.243-3.675 5.496 2.334 9.323 5.686 11.98-4.267-.11-7.827-4.413-7.706-8.58z" class="c"/>
    <path id="path6" d="M44.196 38.84C43.527 27.11 58.65 18.513 68.35 25.283c8.408 5.087 10.203 18.5 2.573 25.078-2.703 2.248-6.64 4.736-10.18 3.795 5.68-1.941 12.442-4.723 13.5-11.432C76.786 33.745 69.2 23.262 59.59 24.09c-8.932.192-16.695 9.618-13.794 18.411 1.505 5.614 6.499 10.587 12.515 10.748.356 3.046-7.042-.465-8.47-2.318-3.492-2.968-5.749-7.471-5.646-12.093z" class="c"/>
    <path id="path7" d="M36.559 38.84c-.617-14.842 15.75-27.291 29.897-22.622 12.81 3.517 21.03 19.259 15.22 31.544-3.438 8.122-11.671 14.504-20.699 14.317 4.256-2.728 10.232-1.94 13.694-6.335 9.257-7.981 10.453-23.808 1.47-32.444-8.406-8.734-24.195-9.231-32.373.1-8.643 8.965-8.023 25.428 2.33 32.867 2.9 3.634 12.199 4.56 12.963 5.32-5.889 1.61-11.46-2.762-15.745-6.292-4.25-4.341-6.83-10.355-6.757-16.456z" class="c"/>
    <path id="path8" d="M29.267 38.84c-.62-17.659 16.887-33.3 34.381-30.624C79.518 9.964 92.72 25.539 90.7 41.609c-1.228 13.179-11.64 25.323-24.893 27.43-1.753 1.49-7.457-.31-2.565-.843 13.73-.845 24.952-12.931 26.233-26.362 1.913-13.381-7.16-26.819-19.842-30.975C58.043 6.4 44.097 10.7 36.727 20.61c-7.402 9.175-8.691 22.853-2.385 32.967 4.738 8.124 13.412 14.15 22.921 14.705 3.48 1.904-5.123.94-6.444.077-12.325-4.107-21.935-16.302-21.552-29.52Z" class="c"/>
    <path id="path9" d="M21.196 38.84C20.54 17.582 40.526-1.648 61.771-.039 80.33.703 97.357 16.228 98.687 34.965c1.76 17.234-9.109 35.187-25.826 40.498-3.528 1.34-10.445 2.62-12.31 1.921 5.967-2.59 13.201-1.597 18.465-5.925 16.826-9.491 24.01-32.99 14.513-50.017-8.241-16.019-28.8-24.81-45.87-18.302-16.687 5.75-28.308 24.12-24.914 41.698 2.666 16.793 17.674 31.121 34.908 31.56 4.067 1.008-4.726 1.552-6.126.43-10.73-2.61-20.355-9.595-25.57-19.4-3.121-5.66-4.865-12.111-4.76-18.589Z" class="c"/>
    <path id="polygon9" d="M60.558 30.592h-1.12V.562h1.12z" class="c"/>
    <path id="polygon10" d="M53.78 33.394 32.578 12.17l.789-.784 21.207 21.22z" class="c"/>
    <path id="polygon11" d="M51.748 39.389H21.744v-1.103h30.004z" class="c"/>
    <path id="polygon12" d="m33.367 66.262-.789-.792L53.78 44.294l.794.784z" class="c"/>
    <path id="polygon13" d="M60.558 77.086h-1.12V47.078h1.12z" class="c"/>
    <path id="polygon14" d="M86.657 66.262 65.446 45.078l.789-.784L87.446 65.47z" class="c"/>
    <path id="polygon15" d="M98.269 39.393H68.253v-1.107h30.016z" class="c"/>
    <path id="polygon16" d="m66.235 33.394-.789-.788 21.211-21.22.789.784z" class="c"/>
    <path id="path16" d="M54.112 41.323c3.338-1.764-1.399-2.262-2.488-1.143-1.482-3.406 4.308.181 4.382-3.556 1.198-2.116 4.962-7.635-.182-5.129-4.102 3.194-10.213-3.24-13.332 3.083-2.228 3.786-2.617 8.168-7.487 9.112-.051 5.914-5.843 3.796-9.388 4.923-1.539 1.337 1.54 7.031 1.387 3.305 5.618 2.54 10.544 9.724 17.28 7.84 3.155-4.144-2.316-7.987-2.243-12.47-2.347-3.248-1.216-8.293 1.783-9.87.386 3.395.886 4.748 4.25 5.33 2.943 2.538 4.654 2.438 6.038-1.425z" class="c"/>
    <path id="path17" d="M43.027 40.686c-1.508 1.559 1.679 2.027 0 0z" class="c"/>
    <path id="path18" d="M42.509 43c.915 2.066.787-1.014 0 0z" class="c"/>
    <path id="path19" d="M43.133 44.038c-2.226-.122 1.897 1.846 0 0z" class="c"/>
    <path id="path20" d="M42.341 41.926c-1.438.554 1.015 1.36 0 0z" class="c"/>
    <path id="path21" d="M43.443 43.533c1.878-.45-.804-.89 0 0z" class="c"/>
    <path id="path27" d="M56.21 43.687c5.365 1.02.393-8.277-.881-2.311-1.226.987-1.78 4.519.882 2.311z" class="c"/>
    <path id="path28" d="M60.962 40.84c-1.143.233.324 1.769 0 0z" class="c"/>
    <path id="path29" d="M57.456 44.834c2.484 1.584.433-2.146 0 0z" class="c"/>
    <path id="path30" d="M58.686 48.278c1.841-1.538-1.213-.495 0 0z" class="c"/>
    <path id="path31" d="M63.499 41.279c-.501-2.076-1.425-.373 0 0z" class="c"/>
    <path id="path37" d="M55.98 36.232c.246 1.979 1.747-1.153 0 0z" class="c"/>
    <path id="path41" d="M58.8 52.821c.029.013.148-.013 0 0z" class="c"/>
    <path id="path42" d="M75.545 56.713c-.01-.246-.24.25 0 0z" class="c"/>
    <path id="path43" d="M60.177 46.605c-2.991.864 1.268 3.322 0 0z" class="c"/>
    <path id="path44" d="M61.772 51.639c1.027-.169-.926-1.106 0 0z" class="c"/>
    <path id="path45" d="M62.006 50.868c.585-.765-1.38.118 0 0z" class="c"/>
    <path id="path46" d="M63.574 51.666c-.675-.889-.974.95 0 0z" class="c"/>
    <path id="path47" d="M66.295 51.418c-.672-1.029-1.16 1.436 0 0z" class="c"/>
    <path id="path48" d="M67.319 50.487c.739 1.045.397-1.048 0 0z" class="c"/>
    <path id="path49" d="M79.922 42.076c1.734 2.19 1.255-2.531 0 0z" class="c"/>
    <path id="path50" d="M79.993 55.543c-3.817 2.116 3.35 5.204.76.692a2.149 2.149 0 0 0-.76-.692z" class="c"/>
    <path id="path52" d="M76.962 63.176c-1.161 1.517 1.146.048 0 0z" class="c"/>
    <path id="path53" d="M83.005 32.283c-3.407 2.78.88 5.523 0 0z" class="c"/>
    <path id="path55" d="M67.35 28.856c-.125 1.374 4.785-1.078.669-.804l-.669.804z" class="c"/>
    <path id="path56" d="M69.633 29.436c-.09 0-.09 0 0 0z" class="c"/>
    <path id="path57" d="M64.702 29.22c2.754 1.077-.23-1.178 0 0z" class="c"/>
    <path id="path58" d="M65.664 30.977c2.48-.234.08-1.85 0 0z" class="c"/>
    <path id="path61" d="M76.257 26.789c-2.084 6.939 3.599-3.736 0 0z" class="c"/>
    <path id="path64" d="M78.2 27.506c-.048.049-.048.049 0 0z" class="c"/>
    <path id="path65" d="M72.348 16.868c-1.277 3.313 6.88 8.371 3.367 2.66-1.089-.871-1.798-2.608-3.367-2.66z" class="c"/>
    <path id="path66" d="M69.894 17.74c2.643 2.764 3.1-3.182 0 0z" class="c"/>
    <path id="path67" d="M63.676 7.42c-1.888-2.337 5.987-2.552.856-2.343-2.472.59-5.92 1.582-.856 2.343Z" class="c"/>
    <path id="path79" d="M77.462 10.846c3.344 2.315-.611-2.518 0 0z" class="c"/>
    <path id="path80" d="M88.312 24.557c-4.259-4.454-6.438-10.916-12.16-13.881-6.779 1.94 1.041 8.372 3.601 10.947 1.849 1.966 6.249 7.103 8.56 2.934z" class="c"/>
    <path id="path81" d="M77.726 23.318c.112.03.112.03 0 0z" class="c"/>
    <path id="path82" d="M77.235 24.793c1.851 2.706 1.423-1.863.125-.985z" class="c"/>
    <path id="path83" d="M79.245 26.027c-3.259 2.899 5.68 7.628 1.762 1.888-.195-.713-.577-2.494-1.762-1.888z" class="c"/>
    <path id="path84" d="M83.03 29.578c-2.165-3.044.983 4.013 0 0z" class="c"/>
    <path id="path87" d="M80.632 25.332c.422 2.006 1.092-.407.186-.504z" class="c"/>
    <path id="path88" d="M80.446 23.69c-2.545-1.023.765 2.286 0 0z" class="c"/>
    <path id="path89" d="M61.772 35.852c.824-.4-1.33-.924 0 0z" class="c"/>
    <path id="path90" d="M82.393 32.522c-1.708 2.01-3.622 1.484-4.079-.066-2.49-1.116-6.554-2.285-7.624-1.776-1.52-3.088-9.016 4.099-7.32-1.04-4.373-.128-4.568 4.975-.77 5.655.913 3.355 3.315 6.327-.937 8.25-1.963 1.445.338 4.19 1.103 1.976-.493 1.935-6.594 5.111-3.263 6.293 2.462-2.363 6.5.305 7.557-4.083-1.149.74-1.046 4.147.835 2.091-2.375 5.275-16.025.176-12.61 8.751 4.284 2.436 10.557 2.054 11.446 8.27 5.046 4.743 11.698-2.093 9.883-7.758-.086-2.614-.003-9.658-3.656-5.979-2.261.707-5.579-2.476-1.85-.177 5.46.297 3.397-5.96 1.812-5.549 2.192-3.22 8.919-2.992 5.085-7.963-2.053-4.63 4.32-2.981 4.388-6.895zM70.356 46.808c-3.62.295-.737-2.56 0 0z" class="c"/>
    <path id="path91" d="M45.9 92.808c8.881-10.484 24.661-12.735 37.118-8.083 2.658 1.244 9.925.5 9.902 1.753-8.407 4.544-18.46 2.103-26.641-1.656-7.33-1.538-14.55 3.043-18.618 8.884l-1.76-.898z" class="c"/>
    <path id="path92" d="M77.816 81.647c5.367-4.076 7.116-11.244 12.476-15.328 3.268.464-2.064 5.963-2.173 8.302-1.408 2.183-6.542 7.144-.732 4.487 5.305-1.46 10.8-2.497 15.732-5.039-4.32 7.486-14.054 11.095-22.24 8.34-1.022-.249-2.04-.516-3.063-.762z" class="c"/>
    <path id="path93" d="M90.229 76.631c2.022-6.59 2.832-13.812 7.051-19.497 3.591.58-.298 7.658-.315 10.458-.327 1.463-4.889 8.524-1.117 4.36 4.44-3.57 9.534-8.587 13.958-10.954-2.12 8.613-10.688 15.434-19.577 15.633z" class="c"/>
    <path id="path94" d="M100.085 65.747c1.33-7.224-2.163-15.051 1.589-21.856 2.584 4.154 1.52 13.957 1.909 15.149 2.897-4.62 6.746-8.527 10.083-12.812.048 6.928-4.635 13.158-10.542 16.397-1.044 1.011-1.786 2.33-3.039 3.122z" class="c"/>
    <path id="path95" d="M106.189 52.97c-.41-6.489-5.724-12.199-3.98-18.896 3.946 2.771 4.062 9.024 5.642 12.563.558-6.265 4.56-11.362 6.252-17.298 2.371 8.615-2.559 17.234-7.914 23.632z" class="c"/>
    <path id="path96" d="M108.138 40.03c-2.936-6.118-8.216-11.085-9.692-17.885 3.736 2.932 6.654 6.845 9.03 10.928-.337-4.982-.216-13.836.842-16.403 4.577 6.96 3.432 16.26-.18 23.36z" class="c"/>
    <path id="path97" d="M105.906 26.745c-4.693-4.26-10.783-7.908-12.601-14.387 3.66 1.012 7.197 7.986 9.808 6.855-.207-3.197-3.354-9.16-1.604-10.653 4.893 4.559 5.566 11.957 4.397 18.185z" class="c"/>
    <path id="path98" d="M101.023 16.973c.19-4.753-4.892-11.218-9.082-10.568 1.023 4.191 4.811 7.322 8.095 9.939l.49.321z" class="c"/>
    <path id="path99" d="M74.127 92.808c-8.889-10.485-24.675-12.736-37.137-8.08-2.658 1.244-9.93.498-9.904 1.749 8.416 4.542 18.477 2.11 26.664-1.656 7.327-1.537 14.53 3.055 18.598 8.885l1.779-.898z" class="c"/>
    <path id="path100" d="M42.217 81.647c-5.403-4.045-7.127-11.24-12.487-15.328-3.256.474 2.062 5.964 2.174 8.303 1.412 2.185 6.54 7.143.728 4.486-5.31-1.46-10.809-2.5-15.747-5.04 4.329 7.492 14.072 11.095 22.265 8.34 1.024-.248 2.043-.515 3.067-.761z" class="c"/>
    <path id="path101" d="M29.78 76.631c-2.014-6.59-2.822-13.81-7.032-19.497-3.527.1-.065 7.175.106 9.652.93 2.237 4.362 8.975.143 4.107-4.064-3.684-8.635-6.757-12.716-10.42 1.1 7.086 7.204 12.747 13.745 15.133 1.85.632 3.798.992 5.754 1.025z" class="c"/>
    <path id="path102" d="M19.951 65.747c-1.357-7.222 2.161-15.055-1.604-21.856-2.585 4.156-1.531 13.953-1.913 15.152-2.916-4.606-6.72-8.547-10.078-12.816-.036 6.924 4.63 13.16 10.54 16.398 1.05 1.012 1.789 2.341 3.055 3.122z" class="c"/>
    <path id="path103" d="M13.815 52.97c.436-6.485 5.728-12.198 3.995-18.896-3.946 2.77-4.077 9.017-5.64 12.562-.558-6.265-4.554-11.366-6.26-17.297-2.44 8.55 2.62 17.276 7.905 23.632Z" class="c"/>
    <path id="path104" d="M11.886 40.03c2.744-5.981 8.051-10.686 9.417-17.304-3.738 2.423-6.505 6.198-8.538 10.108-.17-4.8-.015-14.593-.94-16.2-4.87 6.815-3.495 16.326.06 23.396z" class="c"/>
    <path id="path105" d="M14.113 26.745c4.686-4.27 10.789-7.907 12.612-14.388-3.682.99-7.197 8.006-9.827 6.854.203-3.199 3.364-9.158 1.616-10.654-4.903 4.557-5.54 11.96-4.401 18.188Z" class="c"/>
    <path id="path106" d="M19 16.973c-.192-4.743 4.864-11.215 9.052-10.567-1.005 4.19-4.785 7.327-8.065 9.94l-.49.32z" class="c"/>
  </g>
</svg>
