<svg xmlns="http://www.w3.org/2000/svg" id="svg1" version="1.1" viewBox="0 0 48 48">
  <defs id="defs1">
    <style id="style1">
      .c{fill:#009edb;stroke-width:0}
    </style>
  </defs>
  <g id="g106" image-rendering="optimizeSpeed" transform="matrix(.4391 0 0 .44087 -2.29 4)">
    <path id="path5" d="M51.195 38.84c0-4.875 3.963-8.815 8.814-8.815a8.814 8.814 0 0 1 8.801 8.814 8.806 8.806 0 0 1-8.8 8.798V46.52a7.672 7.672 0 0 0 7.689-7.682 7.684 7.684 0 0 0-7.69-7.694 7.703 7.703 0 0 0-7.702 7.694c.007 4.25 3.453 7.673 7.702 7.682v1.116c-4.851 0-8.814-3.927-8.814-8.798z" class="c"/>
    <path id="path6" d="M44.196 38.84c0-8.726 7.07-15.828 15.813-15.828 8.723 0 15.814 7.097 15.814 15.827 0 8.713-7.091 15.802-15.814 15.806v-1.112c8.098-.013 14.69-6.6 14.704-14.694-.015-8.115-6.606-14.698-14.704-14.715-8.119.017-14.68 6.6-14.698 14.715.018 8.093 6.58 14.681 14.698 14.694v1.112c-8.743 0-15.813-7.093-15.813-15.806z" class="c"/>
    <path id="path7" d="M36.559 38.84c0-12.954 10.506-23.438 23.45-23.438 12.937 0 23.428 10.484 23.434 23.437-.005 12.933-10.497 23.424-23.434 23.424v-1.115c12.322-.022 22.3-9.988 22.322-22.309-.022-12.338-10-22.304-22.322-22.335-12.325.031-22.313 9.997-22.335 22.335.022 12.321 10.01 22.287 22.335 22.309v1.115c-12.944 0-23.45-10.482-23.45-23.424z" class="c"/>
    <path id="path8" d="M29.267 38.84c0-17.005 13.755-30.756 30.738-30.756 16.991 0 30.764 13.75 30.764 30.755 0 16.98-13.773 30.743-30.764 30.743v-1.115c16.376-.03 29.622-13.27 29.649-29.628-.027-16.385-13.273-29.617-29.649-29.644-16.372.027-29.595 13.26-29.626 29.644.03 16.359 13.254 29.597 29.626 29.628v1.115c-16.983 0-30.738-13.764-30.738-30.743z" class="c"/>
    <path id="path9" d="M21.196 38.84C21.196 17.398 38.572.003 60.006 0 81.44.004 98.821 17.399 98.821 38.84c0 21.436-17.381 38.808-38.817 38.808v-1.115c20.82-.035 37.67-16.867 37.706-37.694-.035-20.825-16.885-37.688-37.706-37.727-20.816.039-37.663 16.902-37.703 37.727.04 20.827 16.887 37.659 37.703 37.694v1.115c-21.433 0-38.809-17.372-38.809-38.809z" class="c"/>
    <path id="polygon9" d="M60.558.562v30.03h-1.12V.562Z" class="c"/>
    <path id="polygon10" d="m54.574 32.606-.794.788L32.578 12.17l.789-.784Z" class="c"/>
    <path id="polygon11" d="M51.748 38.286v1.103H21.744v-1.103z" class="c"/>
    <path id="polygon12" d="M54.574 45.078 33.367 66.262l-.789-.792L53.78 44.294Z" class="c"/>
    <path id="polygon13" d="M60.558 47.078v30.008h-1.12V47.078Z" class="c"/>
    <path id="polygon14" d="m87.446 65.47-.789.792-21.211-21.184.789-.784Z" class="c"/>
    <path id="polygon15" d="M98.269 38.286v1.107H68.253v-1.107z" class="c"/>
    <path id="polygon16" d="M87.446 12.17 66.235 33.394l-.789-.788 21.211-21.22Z" class="c"/>
    <path id="path16" d="M54.112 41.323c.338-.04.279.257.394.443 0 .01.09.01.137 0a3.71 3.71 0 0 0 .956-1.952c0-.058.143-.124.143-.15-.075-.342-.444-.457-.606-.744-.192.504-.705.093-1.09.34-.005.01-.036.146.066.186.137.067.338.005.381.11.093.134.093.368-.043.536-.019.04-.13.031-.13 0-.2-.39-.518-.336-.876-.336.15.128-.115.093-.053.168-.497-.133-.975.106-1.453.15-.146.018-.336-.097-.464-.225-.173.181-.377.54-.648.439-.09-.04-.246-.258-.146-.31.276-.164.519-.355.648-.62.106-.218 0-.474.119-.691.142-.283.367-.549.633-.527.301 0 .854.266 1.106-.062.094-.084.28.182.391.306.04.04-.022.106-.067.159-.181.181-.464.2-.576.47a.28.28 0 0 0 .165.393c.23.107.301-.208.41-.367.13-.155.267-.026.391 0 0-.049-.013-.12 0-.12.27-.08.575-.035.858-.035.332 0 .155-.677.124-1.08 0-.089-.01-.204 0-.302 0-.048 0-.106.031-.154.099-.222.528-.284.593-.05.01.085.028.156.05.227.021.12.08.19.23.12.036-.023.08-.059.089-.12.057-.129.031-.337.115-.408.128-.132.308.2.517.231.208.048.44.048.61-.071.147-.089.147-.261.023-.434-.048-.08-.168-.093-.194-.058-.191.2-.44.15-.648.15-.193 0-.286-.238-.45-.353-.181-.128-.407.133-.621.044-.199-.093-.3-.288-.184-.473.047-.089.184-.177.3-.244.247-.124.532-.124.669-.337.106-.19.171-.425.186-.641.013-.12.131-.12.199-.134.288-.1.615-.03.867-.155.288-.11.51-.357.792-.553.139-.075.27-.16.43-.194.08-.023.125-.16.141-.217.059-.483-.074-.93 0-1.44.037-.132.24-.216.14-.363-.032-.053-.233.036-.28-.03-.111-.093-.208-.284-.046-.386.124-.11.395-.013.488-.185.164-.231.08-.664-.181-.748-.261-.134-.553.11-.854.048.034.115-.124.155-.168.155-.373.124-.404-.337-.338-.589 0-.052.037-.084.075-.066.09.014.108-.11.124-.217-.084 0-.19-.009-.265 0-.328.164-.474.513-.8.681-.041.036-.041.098-.015.151.014.04.062.102.11.08 0 .208.068.553-.288.47-.03-.014-.03-.09-.056-.098-.09-.067-.292-.115-.341 0-.057.234.421.341.306.576-.186.327-.639.39-1.011.566-.777.305-1.584-.044-2.411.133-.435.083-.878.026-1.334-.097-.323-.062-.385.22-.553.438-.013-.04-.035-.084-.093-.067-.022-.168.08-.296.04-.469-.019-.133-.23-.115-.28-.226-.54-1.018-1.85-.89-2.845-.721-.186.017-.257.208-.378.323-.202.182-.482-.026-.702.12-.1.062-.137.203-.221.22-.302.085-.62-.22-.878-.062-.172.147-.385.17-.566.253-.062.049-.062.186-.084.306 0 .088-.152.065-.199.065-.28.09-.692-.057-.745.342h.102a.647.647 0 0 1-.35.801c-.345.12-.726.093-1.066.23-.164.058-.385.217-.447.368-.54.956-1.055 1.94-1.09 3.037v.12c0 .07.115.136.115.163-.527 1.133-.881 1.71-1.496 2.793-.252.44-.553 1.51-.103 1.874.227.185-.124.632-.45.654-.417.019-.975-.084-1.125-.54-.075-.194-.421-.23-.686-.265h.035l-.2-.023c-.31 0-.642-.065-.903.023-.473.124-.509.678-.72 1.053-.147.337-.69.253-.851.572-.079.137.076.368-.044.567-.084.132-.267.132-.314.282-.031.085-.053.205-.106.284-.12.438-.204.837-.102 1.27.01.125.01.253.044.337.111.457-.035.85-.234 1.222-.297.43-.82.43-1.298.58-.198.088-.443-.12-.686-.066-.546.101-1.077-.128-1.593.049a1.362 1.362 0 0 0-.177.124c-.267.105-.36-.191-.51-.32-.16-.159-.177-.438-.34-.522-.315-.15-.746.022-.966.337.146-.018-.004.168.11.168-.344.017-.607.318-.872.442-.35.191-.428-.425-.46-.792-.036-.186-.332-.305-.598-.168-.044.053-.102.097-.102.195-.08 0-.146-.098-.221-.027-.236.261.18.23.305.386.08.074-.022.167-.11.23-.12.097-.301-.102-.32 0-.058.176-.164.27-.304.217 0 .052-.024.066 0 .1 0 .05.038.086.088.05-.134.053-.265.137-.364.062-.124-.062-.084-.265-.124-.43-.025-.035-.162 0-.162.053-.046.266.025.35-.263.368.03.098-.075.266.067.293.15.075.333-.094.466 0 .212.215.184.553.246.858 0 .018-.062.04-.093.04.059.159.093.562-.137.389-.279-.163.044-.566-.118-.818-.031-.049-.2-.018-.333-.018.165.407-.191.836.165 1.226.137.177-.422.417-.218.628.12.12.327.24.504.276.099.01 0-.205.031-.276.031-.093.323-.193.385-.062.031.09.075.2.075.338-.137-.037-.277.03-.392.084.115.26-.055.442-.099.695 0 .053.084.154.099.221.07.2.398.018.5.18.075.134-.152.286-.077.466.059.119.254.05.338.15.124.077.078.235.066.387.124-.015.32.118.266.283.146.056.177-.112.164-.214.327.015.194-.301.23-.557-.111.057-.102-.177-.23-.083-.062-.177.013-.373-.062-.532-.089-.182-.356-.222-.394-.465.226.05.394-.031.535-.27.08-.12.28.053.36.217.04.04.012.088.012.155.205-.067.205.14.28.234.167.115.22.32.41.398.289.086.571.086.863.03-.025-.13 0-.268.077-.313.128-.115.194.133.354.146-.07.285.075.518.305.66.058.013.155-.021.208.013.093.066.133.218.266.261.094.022.19-.043.27-.03.147.03.147.15.172.304.018.015.093.062.093.117.27-.055.572.016.647.252.136.345.381.615.536.925.062.16.336.212.372.354a.317.317 0 0 0 .141.221c.177.205.443.267.705.332.093.035.242-.146.406-.22.085-.028.181.056.196.074.248.404.31.951.708 1.183.203.119.261.361.473.42.13.03.284-.102.412 0 .084.062.112.235.177.248.292.137.522.314.584.633.01.048.04.15.12.168.265.031.486-.155.629-.018.195.183.447.267.62.447.053.072.2.124.247.072.07-.09.036-.252.093-.336.076-.146.27-.099.412-.146.177-.072.196-.404.385-.417.329-.054.457.345.718.5.018.032.118.063.155.097.288.155.159.674.5.708.403 0 .615.36.975.426.27.084.485.15.73.3.078.054.217.054.31.02.153-.06.292-.13.416-.218.345-.217.792-.235 1.14-.466.077-.052.152-.15.249-.186.58-.251 1.227.221 1.829-.096.146-.068.35-.068.527-.186.364-.252.47-.767.354-1.165-.253-.633-.474-1.292-.916-1.842-.213-.27-.5-.42-.754-.695-.047-.075-.251-.053-.372-.106-.237-.106-.199-.385-.153-.62 0-.084-.258-.084-.301-.168-.084-.15 0-.327.021-.479.013-.07-.089-.133-.105-.133-.342-.066-.652-.22-.997-.168-.111.015-.213-.106-.314-.168-.062-.053.017-.168.066-.186.199-.168.434-.286.683-.38-.09-.12-.099-.306-.024-.35.133-.133.098-.372.055-.504 0-.049-.055-.16-.187-.16.026-.323.212-.572.026-.855-.203-.27-.482-.425-.553-.77 0-.035-.168-.118-.168-.173 0-.389.119-.818.04-1.212-.058-.169-.248-.368-.102-.47a1.03 1.03 0 0 1 .336-.185c.275-.103.368-.289.23-.474-.137-.19-.416 0-.619-.067-.093-.026-.106-.093-.115-.181-.05-.16.115-.412-.037-.5a.696.696 0 0 1-.295-.253c-.13-.199-.022-.425.128-.624-.088.009-.05-.156-.15-.102-.031-.208.124-.443.035-.624-.066-.186-.221-.416-.451-.315-.022 0 0 .067-.022.067-.124.12-.27.15-.404.036-.027-.036-.027-.151 0-.24.094-.115.28-.066.38-.15.186-.191.024-.447-.066-.55-.283-.247-.403-.469-.34-.818-.324-.045-.82-.084-.797-.54.022-.4-.07-.766-.17-1.174-.078-.283-.061-.58.121-.783.05-.062.106-.177.195-.186.417-.058.93.03 1.165-.363.15-.283-.174-.722.078-.908.426-.319 1.063-.106 1.581-.403.16-.12.137-.34.09-.517-.068-.2-.196-.408-.307-.594-.177-.262-.593-.133-.712-.412a.568.568 0 0 1 0-.438c.093-.204.27-.39.482-.491.469-.182.912-.045 1.31.185.13.071.252.213.342.355.025.048.043.12.07.177.125.531.306 1.098.125 1.58-.084.164-.285.266-.23.518.131-.11.18.067.18.106.097.363.31.863 0 1.09-.388.239-.357-.08-.76 0-.2.022-.351-.036-.33.146.015.106.169.345.267.376.938.239 1.426.315 2.413.473.208.05.367.297.615.333.181.026.386.124.59-.12.06-.084.252 0 .274.053.05.19.164.19.288.257.301.146.203.912.6.664.214-.142.4.014.64-.035-.24.328-.116.65.114.885.187.23.457.337.681.549.177.204.462.15.488-.132.043-.302-.28-.651.105-.912.373.526-.105 1.182.285 1.664.026.049.048.07.07.115.176.221.324.452.558.425.173-.058.243-.221.329-.403.003-.066.03-.137.047-.15.027-.173.098-.288.146-.434.084-.234.376-.42.329-.69 0-.085-.022-.196-.022-.266.022-.368.425-.602.774-.54.102.021.027-.062.12-.134.15-.115.115-.46.252-.632.115-.15.248-.297.327-.447.058-.098.17-.208.124-.342.137 0 .137-.181.27-.199z" class="c"/>
    <path id="path17" d="M43.027 40.686c-.146-.102-.266-.027-.363.075-.098.102-.115.23-.05.31.072.124.147.27.16.394 0 .266-.066.523-.022.806.062.212.31.588.447.341.155-.275.394-.686.208-1.018-.15-.31-.053-.718-.38-.908z" class="c"/>
    <path id="path18" d="M42.509 43c.04.098.084.165.124.267.075.217.429.115.557-.035.018-.084 0-.231-.097-.31-.097-.111-.257-.094-.341-.151-.066-.017-.137-.093-.186-.07-.079.07-.079.199-.057.3z" class="c"/>
    <path id="path19" d="M43.133 44.038c0-.404-.36-.528-.624-.284-.341.284.057.796.314 1.164.04.089.088.208.142.306.124.132.364.084.442-.067.062-.137.111-.186.186-.323.102-.284-.062-.796-.46-.796z" class="c"/>
    <path id="path20" d="M42.341 41.926c0-.062-.102-.062-.124-.054-.16.054-.204.181-.23.328a.633.633 0 0 0 .172.57c.067.09.182-.016.23-.158.098-.217-.031-.452-.048-.686z" class="c"/>
    <path id="path21" d="M43.443 43.533c.057-.05.177-.15.15-.284.102.018.212 0 .283-.12.068-.052-.071-.128-.035-.208-.22-.062-.372.156-.544.31-.155.151.057.368.146.302z" class="c"/>
    <path id="path22" d="M43.168 45.892c-.035.203 0 .337.137.38.067.019.195.05.195-.043.018-.124.097-.244.018-.354-.018-.019-.075 0-.09 0-.123-.067-.17.11-.26.017z" class="c"/>
    <path id="path23" d="M43.86 47.845c.062-.155.199-.315-.055-.47-.048-.017-.172-.017-.247-.017 0 .234.137.42.302.487z" class="c"/>
    <path id="path24" d="M27.053 54.427c-.05.028-.066.28 0 .345.075.084.28.053.398.053-.088-.202-.075-.565-.398-.398z" class="c"/>
    <path id="path25" d="M28.789 56.182c-.152.27.177.562.571.596 0-.133.048-.295-.022-.397-.138-.187-.478-.35-.55-.2z" class="c"/>
    <path id="path26" d="M29.563 57.231c-.044.482.146.805.633.87.059-.509-.137-.804-.633-.87z" class="c"/>
    <path id="path27" d="M56.21 43.687c.439-.141.983-.26 1.497-.26 1.16-.027 1.094-1.501 1.687-2.436.128-.23-.071-.744-.236-.987-.392-.633-1.624.088-1.903-.58-.163-.377.828.24.921-.35.019-.154-.074-.35-.195-.407-.158-.093-.469-.11-.593 0-.624.523-.74 1.425-1.059 2.019-.662 1.147-1.854 1.974-2.487 3.254-.103.19.045.345.204.416.867.292 1.46-.518 2.165-.669z" class="c"/>
    <path id="path28" d="M60.962 40.84c-.164.058-.347.103-.43.218-.07.168-.098.442 0 .598.052.075.315.088.384 0 .124-.134-.044-.297-.184-.377.14-.123.283-.221.23-.438z" class="c"/>
    <path id="path29" d="M57.456 44.834c.367.438 1.31.292 1.208-.128-.111-.367-.736-.575-1.16-.452-.271.085.477.394-.048.58z" class="c"/>
    <path id="path30" d="M58.686 48.278c.376-.163.18-.53.233-.854-.392.168-.6.447-.662.854.15 0 .296.053.429 0z" class="c"/>
    <path id="path31" d="M63.499 41.279c.038-.027.075-.288 0-.38-.08-.058-.254 0-.394-.036-.174-.07-.232-.221-.267-.407 0-.235-.22-.403-.159-.665-.292.133-.275.456-.182.598.257.394.434 1.014 1.002.89z" class="c"/>
    <path id="path32" d="M57.14 37.994c-.177-.093-.309.022-.177.182.067.084.27.03.39.035-.062-.07-.098-.177-.213-.217z" class="c"/>
    <path id="path33" d="M26.004 48.115c.062-.102-.071-.177-.152-.27-.115-.098-.252.026-.34-.098 0 .098-.027.226.04.302.08.128.3.23.452.066z" class="c"/>
    <path id="path34" d="M27.823 48.123c.183-.093.435-.163.31-.442 0-.018-.043 0-.083 0-.292-.173-.674-.106-.608.243.01.156.2.319.381.2z" class="c"/>
    <path id="path35" d="M57.894 29.578c.07-.177.363-.212.323-.403-.022-.084-.208-.084-.289-.084-.133.01-.105.195-.105.359-.053-.014-.097 0-.097.044 0 .084.14.115.168.084z" class="c"/>
    <path id="path36" d="M58.823 29.22c.044-.045.208-.173.075-.284-.11-.101-.293-.101-.345-.053-.128.141.074.469.27.337z" class="c"/>
    <path id="path37" d="M55.98 36.232c-.114.301.435.677.709.5.217-.132.119-.517-.093-.629-.199-.105-.544-.057-.615.13z" class="c"/>
    <path id="path38" d="M56.618 38.26c.12-.11 0-.266-.097-.328-.106-.093-.31-.045-.469 0-.04.022-.09-.03-.146-.045-.04.13.084.191.146.191.22 0 .407.306.566.182z" class="c"/>
    <path id="path39" d="M55.785 38.827c-.149.093-.118.38.037.495.168.084.389.05.476-.159.062-.173.174-.42 0-.545-.208-.146-.308.089-.513.209z" class="c"/>
    <path id="path40" d="M55.25 38.078c.017.28-.133.545-.067.806.044.155.258.106.289 0 .084-.244 0-.46.195-.624-.068-.022-.152-.12-.152.062.019-.062.075-.115.04-.173-.083-.093-.186-.07-.304-.07z" class="c"/>
    <path id="path41" d="M58.8 52.821c.013.004.023 0 .036.004.009 0 .021 0 .03-.004z" class="c"/>
    <path id="path42" d="M75.545 56.713c.022-.013.004-.05 0-.068-.005.05-.062.084-.107.068.045 0 .102.016.107 0z" class="c"/>
    <path id="path43" d="M60.177 46.605c-.1.035-.084-.093-.1-.115-.094-.098-.192-.098-.227-.235-.098-.194-.26.137-.456.12-.022 0-.071.066-.044.137.172.226-.027.319-.168.482-.09.182.177.196.234.38.09.214-.143.395-.093.625a2.38 2.38 0 0 0-.261.35c-.031.027-.133.213-.084.297.173.204.482-.203.668-.234.168 0 .195 0 .337-.103.194-.115.38-.186.451-.402.028-.08-.31-.116-.412-.129.155-.385-.062-.5.009-.92 0-.014.199-.253.146-.253z" class="c"/>
    <path id="path44" d="M61.772 51.639c0 .018.1.027.128 0a.362.362 0 0 0 .097-.473c-.062-.111-.302-.111-.323.056-.044.146.021.293.098.417z" class="c"/>
    <path id="path45" d="M62.006 50.868c.159-.034.058-.199-.018-.3-.053-.054-.181-.081-.2-.035-.114.186 0 .42.218.335z" class="c"/>
    <path id="path46" d="M63.574 51.666c-.037-.01-.075-.062-.05-.084-.137 0-.279-.09-.443-.046-.044 0-.163-.03-.243-.03-.022.133-.066.315.093.363.23.018.466.018.643-.203z" class="c"/>
    <path id="path47" d="M66.295 51.418c.055 0 .015-.252-.035-.267-.233-.047-.434.2-.68.115a.31.31 0 0 1-.077.227c-.022.022-.1.012-.159.012.258.316.668.01.951-.087z" class="c"/>
    <path id="path48" d="M67.319 50.487c.102.413.562.217.611-.07 0-.2-.279-.2-.368-.049.022-.034.04-.09.07-.137-.118.103-.35.103-.313.256z" class="c"/>
    <path id="path49" d="M79.922 42.076c-.091.221.307.266.502.336.24.071.631.036.7-.185.109-.394-.33-.798-.75-.748-.359.03-.332.335-.452.597z" class="c"/>
    <path id="path50" d="M79.993 55.543c-.133-.044-.385-.044-.385 0-.301 1.303-1.504 3.104-.066 3.977.634.398 1.417-.39 1.513-.801.24-.984.13-2.59-1.062-3.176z" class="c"/>
    <path id="path51" d="M76.009 49.779c-.2.111-.24.59.075.59.13 0 .27-.103.377-.187.116-.133.1-.314-.036-.354-.14-.05-.301-.124-.416-.05z" class="c"/>
    <path id="path52" d="M76.962 63.176c-.125.217-.094.487.118.633-.003-.195.36-.434.093-.633-.097-.103-.168-.04-.211 0z" class="c"/>
    <path id="path53" d="M83.005 32.283c-.183-.026-.245.031-.307.133-.044.172.022.377-.044.562-.425 1.182-1.788 2.254-1.146 3.582 0 .022.097.022.115 0 .38-.257.606-.607.81-.979.39-.815.734-1.651 1.004-2.58.046-.284-.056-.682-.432-.718z" class="c"/>
    <path id="path54" d="M80.795 36.985c-.103.185.129.332.284.252.154-.067.252-.328.115-.367-.115-.058-.328-.058-.4.115z" class="c"/>
    <path id="path55" d="M67.35 28.856c-.151-.482-.537-.021-.847-.079-.131-.014-.193-.182-.268-.182-.117.022-.223.04-.301.12-.208.12-.05.438.162.398.164 0 .276-.23.347-.089.159.262.053.709.454.616.261-.062.422-.248.705-.274.28-.014.31-.319.28-.531.291-.036.636-.275.822-.036.09.084.115.265.186.376.088.2.289.248.497.257.256-.062.516-.04.712-.257.204-.252.186-.558-.075-.73-.106-.071-.292.022-.398-.071-.217-.12-.378-.306-.595-.39-.765-.204-1.221.46-1.681.872z" class="c"/>
    <path id="path56" d="M69.633 29.436c-.078 0-.162 0-.246-.004-.01 0-.018 0-.027.004z" class="c"/>
    <path id="path57" d="M64.702 29.22a2.51 2.51 0 0 1 .779-.014v-.053c-.022-.438-.456-.39-.699-.217-.022 0 0 .066 0 .066-.093.045-.208-.017-.261.022-.102.129.056.249.18.196z" class="c"/>
    <path id="path58" d="M65.664 30.977c.283-.367.686-.607 1.118-.81.031 0 0-.093 0-.146l-.053.12a.866.866 0 0 0-.42-.435c-.014.177-.213.297-.297.368-.22.164-.494.345-.593.576-.075.19-.115.49.04.61.097.062.146-.186.205-.283z" class="c"/>
    <path id="path59" d="M61.63 28.374c-.031.124-.062.279.102.305.203.058.203-.26.1-.327-.06-.045-.177-.071-.202.022z" class="c"/>
    <path id="path60" d="M52.208 22.388c.31.155.686.155 1.015.169.057 0 .243-.196.146-.332-.183-.142-.466-.022-.63-.24l-.155-.03c-.27-.085-.34.163-.49.305-.072.101.105.128.114.128z" class="c"/>
    <path id="path61" d="M76.257 26.789c-.115.16-.341.088-.553.16-.106.026-.099.243-.044.31.203.292.447.123.73.061-.08.106.071.089.11.124.13.088.186-.221.31-.124.037.035.037.212 0 .23-.186.098-.186.283-.349.36a.283.283 0 0 1-.416-.13c-.014-.026-.102 0-.155 0h.053c-.08.137 0 .376-.08.443-.323.288-1.044.514-.727.947.24.324.78.231 1.218.196.05 0 .107-.08.093-.124-.044-.407.177-.479.447-.682.111-.093-.084-.222-.212-.337-.12-.057.004-.306.128-.306.168-.008.168-.22.32-.172v-.27c.257.03.472-.146.42-.367-.085-.292-.35-.545-.253-.859.019-.116.112-.239.283-.284.084-.022.13-.128.062-.186-.04-.035-.093-.017-.14-.017 0 .102-.16.062-.115.146-.28.057-.55 0-.794.15-.283.137-.168.505-.336.73z" class="c"/>
    <path id="path62" d="M73.455 29.45c.017.314.364.16.54.053-.114.044-.027-.102-.114-.11-.155-.027-.28.057-.426.057z" class="c"/>
    <path id="path63" d="M77.387 28.835c-.186.256.323.256.526.15.009 0 .005-.03 0-.05.018-.052 0-.079-.04-.1-.194-.12-.433-.098-.486 0z" class="c"/>
    <path id="path64" d="M78.2 27.506c-.061-.031-.167-.008-.251-.008.115.053.115.292.296.256-.01-.03-.031-.057-.031-.12-.013-.035.021-.102-.013-.128z" class="c"/>
    <path id="path65" d="M72.348 16.868c.244.14.406.344.483.557.115.284-.093.65.097.935.035.12.155.203.204.265.119.137-.005.39.035.562.106.376.133.722.18 1.08.147-.03.147.226.333.164 0 .222.108.39.139.607.062.244.348.12.507.292.254.354.493.708.869.957.115.074.288.074.35.181.031.049 0 .132.06.132.502.085 1.205.346.957.957.186-.137.416-.24.478-.452.102-.376.183-.783.018-1.15-.096-.191-.376-.288-.434-.5-.047-.156 0-.297.005-.417.013-.217-.292-.141-.345-.244-.12-.26-.217-.703.293-.664.016 0-.077-.093-.05-.185-.173 0-.332.03-.496 0-.115-.014-.115-.182-.115-.236-.053-.278.093-.628-.155-.823-.216-.132-.495-.172-.712-.323a3.709 3.709 0 0 0-.544-.385c-.13-.084-.356.12-.453 0-.42-.47-.717-1.018-1.106-1.55-.151-.167-.453-.164-.723-.124-.075.019-.034.103-.053.146.037 0 .08 0 .106.019.09.043.031.154.072.199z" class="c"/>
    <path id="path66" d="M69.894 17.74c-.177.252-.106.58.071.65.258.106.63.09.953.058.172-.03.283-.212.38-.385.173-.266.624-.111.962-.23-.053.208.096.185.212.274-.013-.23-.013-.544-.165-.65-.304-.182-.323-.448-.481-.73-.035-.099-.209.047-.209.096.035.474-.363.39-.686.514-.013.03.018.12-.013.155 0 .017-.05.017-.102 0-.058-.067-.102-.093-.093-.2-.164 0-.394 0-.46.107-.093.164-.26.195-.369.341z" class="c"/>
    <path id="path67" d="M63.676 7.42c-.289-.544-.736-1.041-.617-1.735.825.292 1.564.15 2.382-.11.611-.17 1.31.122 1.904-.258.076-.067.005-.27.005-.42-.683.314-1.254-.585-1.87-.19-.8.504-1.664.628-2.443.831-.633.147-2.276.036-2.35.974.877.01 1.85.075 2.394.863.08.098.39.045.595.045z" class="c"/>
    <path id="path68" d="M66.38 11.343c.24.42.669.513 1.063.655.071-.213-.046-.315-.173-.43-.28-.225-.566-.252-.89-.225z" class="c"/>
    <path id="path69" d="M65.77 12.649c-.147.066.018.282.164.402-.028-.186.215-.567-.165-.402z" class="c"/>
    <path id="path70" d="M65.127 11.865c.04.013.12.013.159 0 .018-.01 0-.058 0-.102 0-.284-.287-.363-.526-.39 0 .058-.022.195.022.209.142.07.18.181.345.283z" class="c"/>
    <path id="path71" d="M67.496 14.866c.018.04.106.084.15.036.058-.058.098-.137.058-.248v.044c-.053-.093.066-.23-.058-.314-.044-.018-.115-.035-.132 0-.17.155-.018.314-.018.482z" class="c"/>
    <path id="path72" d="M68.35 14.906c-.027.13 0 .221.075.292.068.022.115 0 .137-.043-.07-.05-.07-.089-.07-.17.026-.185-.116 0-.142-.079z" class="c"/>
    <path id="path73" d="M68.014 15.543c.039.129.16-.043.194-.199 0-.004.014-.026.018-.04.022.019.044.036.062.054-.009-.026-.035-.054-.053-.08-.12-.15-.341-.27-.465-.123-.137.163.16.163.244.388z" class="c"/>
    <path id="path74" d="M68.323 15.637c.084.053-.115.018-.057.102.159.217.438.327.634.265.096-.066.217-.265.115-.332-.161-.101-.385-.035-.59-.035z" class="c"/>
    <path id="path75" d="M69.564 16.186c.11-.062.007-.146 0-.213-.055-.146-.139-.283-.239-.19-.099.053-.17.283-.028.367.053.04.169.093.267.036z" class="c"/>
    <path id="path76" d="M69.95 16.934c.052.058.207-.057.273-.111.04 0 .018-.097.018-.154.062.021.088 0 .088-.058.053-.088.027-.204-.088-.244-.071-.026-.168.097-.257.022-.019 0 .018-.048 0-.084-.08-.062-.196-.115-.252-.052-.106.088-.106.251-.058.354.058.105.167.216.275.327z" class="c"/>
    <path id="path77" d="M69.248 17.51c.05 0 .102-.054.112-.102a.571.571 0 0 0 0-.323c-.01-.076-.08-.076-.134-.04-.078.04-.07.167-.171.19.025.133.093.257.193.274z" class="c"/>
    <path id="path78" d="M68.54 4.36c-.022 0-.062-.017-.062-.048 0-.01.04-.031.062-.045-.133-.141-.287-.039-.442-.07.1.163.252.301.442.163z" class="c"/>
    <path id="path79" d="M77.462 10.846c.14.134.45-.026.602.134.15.172.265.451.526.451.164 0 .288-.088.31-.234.044-.435-.128-.935-.55-1.126-.401-.12-.823-.12-1.22-.11-.262 0-.262.301-.152.42.13.151.301.302.484.465z" class="c"/>
    <path id="path80" d="M88.312 24.557c-.288-.354-.31-.744-.496-1.031-.172-.27-.597-.301-.818-.62-.11-.155.092-.42-.076-.545-.097-.074-.2-.158-.217-.243-.137-.372-.309-.615-.65-.788.106-.433-.289-.646-.696-.761-.018-.023.04-.138.04-.186-.018-.169-.226-.217-.366-.266-.055-.03-.165 0-.183-.03-.208-.275-.496-.488-.593-.723-.124-.39-.497-.61-.82-.823-.118-.062-.22-.394-.282-.394-.227 0-.535.017-.566-.24-.04-.482-.431-.778-.789-1.07-.522-.376-.062-1.182-.244-1.77-.048-.25-.314-.25-.548-.25-.084 0-.168-.075-.213-.163-.203-.363-.044-.77-.283-1.106-.367-.519-.774-.913-1.178-1.427-.23-.256-.562-.216-.85-.243-.084-.013-.133-.062-.208-.115-.106-.066-.137-.195-.2-.297-.164-.292-.518-.42-.813-.558-.55-.225-1.14-.11-1.718-.19a1.9 1.9 0 0 0-1.307.412c-.403.301-.872.46-1.385.553-.195.036.075.284 0 .43-.115.194-.394.402-.28.589.057.043-.101.013-.048.079.11.111.306.026.461.026.18.028.247.222.349.31.226.235.484.462.615.749.053.11-.155.318-.053.425.283.292.23.553.23.907 0 .146.307.01.378.058.416.217.494.748.38 1.169-.063.225-.04.548.058.735.208.403.252.987.633 1.288.084-.129.185-.301.256-.284.332.045.337-.212.545-.332.628-.424 1.15.404 1.324.882.171.473 0 1.084.212 1.554.164.46.456.832.907 1.062.102.058.124.337.217.54.045.115.164.27.341.146.102-.062.053-.283.22-.35.14-.048.29.045.373.12.404.5.5 1.532 1.324 1.47a.235.235 0 0 0 .155.248c.168.053.288-.186.407.031.13.186.195.425.372.517.283.09.59-.017.873.054.18.053.335.27.465.451.079.124.177.267.292.386.553.54.765 1.355 1.435 1.766.202.138.398.399.695.319.088 0 .026-.133.119-.151.273-.03.434-.261.549-.429a2.3 2.3 0 0 1 .867-.686c.005-.017 0-.12.005-.133.243-.2.554-.252.783-.47.205-.15.094-.5 0-.602z" class="c"/>
    <path id="path81" d="M77.726 23.318c.072.009.124.035.177.057.053.014.103.01.161.031z" class="c"/>
    <path id="path82" d="M77.235 24.793c.106.18.345.216.519.33.195.165.288.404.46.506.345.195.213-.39.376-.584.062-.036.244.03.288-.036.205-.283-.044-.726-.298-1-.211-.2-.37-.514-.677-.634-.158-.035-.308-.026-.401.151-.16.248.003.58-.115.832-.071.134-.205.284-.152.435z" class="c"/>
    <path id="path83" d="M79.245 26.027c-.14.492-.044 1.019-.1 1.545-.04.261-.44.208-.603.435a.706.706 0 0 0-.115.504c.057.345.451.324.694.451.648.324 1.232.802 1.602 1.457.134.217.192.523.382.709.19.194.55.194.606.544.027.138.275.186.385.107.337-.275.297-.802.062-1.09-.155-.15-.301-.354-.301-.522a4.04 4.04 0 0 0-.624-2.01c-.243-.34-.66-.523-.911-.837-.031-.07-.115-.186-.053-.274.084-.17.264-.284.305-.483.034-.368-.382-.505-.478-.863 0-.018-.116 0-.187 0l.205.062c-.345-.146-.78-.08-.87.265z" class="c"/>
    <path id="path84" d="M83.03 29.578c-.056-.186 0-.425-.025-.655-.031-.394-.456-.456-.785-.456-.15 0-.332-.049-.363.12a.673.673 0 0 0 .093.504c.611.7.562 1.7.828 2.515.088.331.66.066.758-.284.057-.181.066-.38.031-.553-.084-.181-.257-.305-.301-.509-.044-.257-.195-.434-.236-.682Z" class="c"/>
    <path id="path85" d="M82.07 27.32c-.27.212.115.434.04.73h.11c.173.08.173-.133.213-.217-.323.019-.27-.327-.248-.513-.027 0-.075-.027-.115 0z" class="c"/>
    <path id="path86" d="M81.924 26.594c.018-.172-.018-.345-.213-.376-.035.27-.301.204-.447.345-.185.146.014.385.213.465.044 0 .044.08.075.08.372.15.668-.146.518-.514 0-.022-.084 0-.146 0z" class="c"/>
    <path id="path87" d="M80.632 25.332c.33.195.007.55.265.655.182.124.553.19.726.023.137-.102-.005-.35-.28-.368-.11-.013-.101-.212-.08-.354-.069 0-.127-.048-.158-.08-.265-.18.226-.319.08-.549-.05-.048-.018-.16-.08-.167-.097-.05-.208.008-.248.119-.084.101.067.235.009.359-.071.154-.373.27-.234.362z" class="c"/>
    <path id="path88" d="M80.446 23.69c-.155-.066-.4.084-.524-.186-.013-.031-.137-.031-.184 0-.04.022-.04.07-.068.093-.087.124-.19.216-.087.31.136.102.171.2.248.314.091.173.345 0 .398.155.04.15.177.2.283.124.127-.058.021-.279.062-.394-.08.053-.04-.146-.103-.054.04-.127.12-.309-.025-.362z" class="c"/>
    <path id="path89" d="M61.772 35.852h.1c.01-.053 0-.12.063-.191.062-.089-.035-.217-.097-.279-.09-.102-.274 0-.214.19h.094a.302.302 0 0 0 .054.28z" class="c"/>
    <path id="path90" d="M82.393 32.522c-.323-.128-.682.04-.983.226-.637.327-.718 1.182-1.12 1.638-.275.31-.592.464-.974.442-.05 0-.195-.062-.212-.186 0-.185-.067-.376.075-.526.128-.102.274-.186.363-.337.177-.283.04-.62-.027-.885-.155-.58-.761-.921-1.314-.828-.559.11-.885.69-1.196 1.195 0 0-.11.013-.11 0-.213-.26-.492-.398-.638-.673-.035-.026-.035-.089 0-.146.22.12.425.452.659.315.226-.133.027-.438-.146-.5-.193-.067-.38-.262-.628-.235-.173.013-.381-.243-.438-.451-.071-.31-.099-.718-.367-.802-.288-.12-.555-.133-.832-.332-.13-.067-.288.053-.413.044.088-.089.013-.297.057-.297.347-.03.772-.03.564-.42-.093-.186-.28-.372-.496-.217-.068.031-.196.031-.221.124-.046.062-.059.155-.099.212-.062.147.106.42 0 .51-.217.145-.531.133-.801.322a.382.382 0 0 1-.177 0c-.234-.079-.603-.345-.712-.225-.164.199-.204.452-.4.553-.171.085-.394.098-.575.182-.314.124-.133.527 0 .82.066.1.022.27-.09.349-.224.128-.273-.155-.326-.266-.093-.284-.177-.602-.177-.903-.027-.31.367-.51.46-.806.067-.18.12-.389-.01-.593-.14-.217-.366-.323-.578-.257-.562.15-.723 1.12-1.285.868-.286-.11-.54-.407-.85-.554-.177-.12-.345-.243-.544-.092-.394.297-.876.469-1.292.673-.373.172-.7.61-.917 1.018-.235.513-1.173.801-1.483.19-.15-.297-.464-.531-.796-.522-.307.048-.413.447-.749.522-.244.045-.385-.04-.478-.226-.015-.048-.015-.137 0-.155a5.215 5.215 0 0 1 1.491-.872c.276-.092.31-.389.208-.655a.44.44 0 0 0-.062-.186c-.025-.142-.047-.358-.096-.358-.692.053-1.27.544-1.618 1.172-.043.089-.083.218-.14.218-.438-.036-.885.212-1.254-.036-.079-.048-.184-.553-.24-.5-.176.186-.282.416-.446.615-.044.102-.163.15-.23.253-.248.38.23.775.12 1.08-.075.155-.478.155-.739.217-.133.044-.133.26-.12.434.018.137.167.12.257.168.257.253.274.686.602.837.398.181.882.057 1.358.181.307.07.54.283.674.598.075.168.328.257.341.517.013.089.128.173.252.235.142.05.328-.097.465-.035.203.058.119.323.172.487.098.315-.07.655.263.965.124.106-.13.43-.27.61-.063.063-.267.063-.289.16a.907.907 0 0 0 .124.753c.102.128.265 0 .305.089.245.305.345.646.55.925.089.106.186.243.304.288-.146.03-.19.212-.146.278.09.12.292.195.4.085.168-.111.349-.15.513-.301.097-.107.26-.067.363-.169.115.107.212.346.133.447-.244.24-.682.076-.965.262-.195.089-.385.04-.488.194-.096.098 0 .324.174.345.619.134.137 1.028-.164 1.484-.072.097 0 .266-.035.456-.024.08-.139.128-.208.128-.595.053-1.201-.155-1.741.04-.187.054-.28.315-.367.532h.106c-.16.017-.16.19-.196.278-.03.107-.016.31-.084.408-.522.575-.596 1.306-.69 1.974-.018.203.236.337.382.337.146 0 .354-.168.482-.168.27.034.204.45.305.629.115.208.514.242.558-.031.066-.236.066-.51.143-.718.083-.288-.223-.483-.28-.748-.07-.253.057-.474.203-.643.098-.096.257.023.32.17.056.15.056.349.114.521.035.182-.093.4.01.527.101.124.164.293.118.443-.017.08-.119.146-.172.243-.07.205.053.478-.115.554-.177.137-.155.385-.363.403-.474.03-1.05-.221-.894-.752-.19-.019-.39-.019-.475.15-.1.212 0 .549-.124.721-.177.217-.292.443-.485.664-.068.049.093.084.03.156-.253.296-.545.411-.855.642-.017 0-.031 0-.031.057-.203.133-.544-.084-.625.158-.114.254.254.426.373.683.071.173.027.376-.212.407-.345.084-.646.037-1.01-.018 0 .102-.092.09-.092.12-.062.305 0 .553-.236.823-.15.196.075.435.208.6.152.202.214.48.404.53.15.039.279.172.416.154.292-.075.5-.185.615-.5.044-.185.36.03.567-.035.048-.019.154-.053.194-.084.16-.186-.04-.453.053-.562a4.778 4.778 0 0 1 1.095-.944c.137-.115.349-.234.557-.164.159.05.297.151.469.217.16.08.292.192.452.285.035.034.163.078.24.115.277.118.447.463.752.637.089.044.021-.12.115-.053.009-.28-.05-.55-.181-.714-.183-.27-.484-.407-.687-.624-.076-.066-.076-.261.039-.376.024-.053.124-.053.13 0 .164.146.326.146.496.23.336.146.274.652.6.82.174.092.267.35.475.385.243.083.637 0 .774-.293.108-.177-.097-.279-.221-.394-.243-.186.124-.27.245-.416.211-.257 0-.478-.024-.726-.026-.103.046-.165.108-.212 0 0 .016-.031.047-.05.142-.305.015-.636.13-.933.043-.066.124-.058.124-.035.087.146.255.251.407.198.248-.062.441-.186.615-.407.212-.279.664-.124.774.142.049.203-.017.483-.177.535a3.21 3.21 0 0 0-1.364.55c-.053.047-.124.084-.155.15-.212.155-.296.31-.18.642.021.124-.143.257-.262.376.203.068.203.32.39.36.337.078.645.093.884-.14a.612.612 0 0 0 .09-.423c.217-.027.363-.235.597-.284.469-.075.739.438.615.847-.026.078-.146.078-.185.105-.244.386-.43.762-.81.926-.584.296-1.298.23-1.816.531-.199.133-.261.482-.557.566-.257.067-.586.217-.85 0v.058c0 .196-.606.062-.9-.058-.097-.035-.039-.323-.163-.433-.102-.067-.3.031-.344-.084-.063-.062 0-.213-.077-.232-.69-.118-1.333.094-2.035.019-.186-.019-.17.23-.325.345-.128.062-.252.186-.385.239-.278.142-.579.341-.916.217-.293.093-.563.133-.827.183-.438.083-.687.45-1.046.699-.278.186-.603.22-.911.202-.09 0-.04.146-.12.146-.473.12-.904.717-1.174 1.232-.079.137.024.336-.062.456-.246.386-.376.765-.717 1.085-.035.034-.035.137-.022.199.381.522.832.872 1.217 1.407.093.146.285.146.341.285.152.335.36.637.537.95.246.448.894.625 1.451.448.204-.057.444.137.63.177.633.058 1.305.208 1.898-.112.885.276 1.807-.109 2.612.276.16.044.16.336.275.531.187.35.402.705.74.957.283.199.686.332 1.08.366.11 0 .128.28.225.395.115.151.062.385.204.5.195.186.363.32.35.59 0 .317-.39.596-.155 1.018.057.131-.027.348.04.432.504.5.979.971 1.588 1.422.059.053.168.128.12.252.235.068.266.301.42.429.121.152.054.387.174.537.208.248.435.487.672.704.31.283.74.217 1.111.296.084.058.187.124.292.155.35.111.732.146 1.037-.088.173-.146.327-.416.496-.518.265-.217.672-.199 1.036-.266.07-.013.177-.053.226-.146.044-.209.235-.318.22-.522.27-.013.479-.152.7-.267.443-.23.779-.677 1.195-1.035.416-.39 1.117-.217 1.342-.655.226-.43-.088-1.019.111-1.519.115-.23.261-.509.283-.766.036-.433.053-.88.022-1.314-.022-.252-.283-.51-.252-.758.018-.18.332-.18.398-.332.155-.354.301-.721.483-1.053.032-.068.16-.099.265-.168.16-.115.022-.298.053-.465-.131-.04-.193-.187-.252-.27-.372-.528-.717-1.037-1.332-1.29-.15-.043-.164-.207-.234-.332-.058-.047.022-.211-.036-.27-.164-.093-.102-.248-.143-.363h.148c-.005-.003 0-.013 0-.013-.062 0-.086-.053-.086-.07.14-.368.347-.7.625-.939.08-.08.293-.08.32-.177.074-.314.057-.637-.094-.903-.226-.386-.026-.77-.088-1.134-.058-.725-.058-1.385-.39-2.04-.071-.203-.256-.355-.513-.283-.124.018-.112.18-.183.282-.087.103-.106.236-.15.417-.101.239-.425.314-.509.567-.043.154-.083.301-.151.402-.115.12-.22.285-.376.316-.261.087-.51.15-.756.198a1.737 1.737 0 0 1-.846-.027c-1.51-.42-2.802-1.004-4.317-1.42-.017 0-.017-.102 0-.12.235-.119.487.053.735-.013.174-.031-.034-.27.053-.27.314.075.572.283.882.403.628.215 1.248.278 1.916.416.519.115.876.482 1.37.606.42.128.693-.19 1.016-.32.018 0-.007-.132.018-.17.146-.27.413-.413.522-.665.077-.183-.038-.466.077-.674.056-.096.224-.195.265-.31.083-.323.036-.655.036-.973.184.017.327-.186.274-.27-.044-.049-.059-.13-.09-.177 0-.186.031-.386.071-.585.1-.473-.04-.939-.233-1.341-.099-.213-.382-.27-.608-.213-.07.045-.097.169-.168.213-.23.017-.425.12-.566.234-.195.155-.186.488-.35.624-.288.24-.566.492-.944.634-.239.115-.587-.022-.637-.222-.23-.615.606-.505 1.028-.615a.898.898 0 0 0 .203-.222c.116-.216.164-.531.4-.646a1.02 1.02 0 0 1 .487-.036c.15.036.264-.177.423-.265.124-.058.115-.301.164-.434.075-.253.354-.385.47-.602.26-.469.26-1.173.638-1.54.256-.2.122.336.221.451.159.221.606.2.757.036.132-.133-.014-.47.225-.602a.784.784 0 0 1 .32 0c.176.114.388.314.574.203.13-.089.267-.275.404-.318.217-.072.465 0 .686-.098.544-.253 1.683.098 1.62-.43-.098-.85-.788-1.522-1.536-1.916-.597-.284-.372-1.121-.907-1.59-.137-.098-.068-.314-.183-.447a.68.68 0 0 0-.199-.151c-.078-.062-.168-.137-.168-.163.09-.443-.124-.859.112-1.227.118-.177.385-.265.54-.394.19-.154.535-.274.535-.527 0-.345-.035-.721.027-1.08.031-.12.243-.216.367-.216.624-.014 1.298.154 1.873-.227.146-.128.164-.314.257-.429.447-.655 1.128-1.164 1.102-2.015-.014-.15.225-.19.283-.371.04-.084.04-.235 0-.235zM70.356 46.808c0 .05.026.129-.027.147-.106.123-.327.053-.38-.111-.08-.168-.16-.354-.323-.421-.16-.031-.301-.013-.381.15-.165-.119-.329-.03-.479-.061.053-.257-.204-.24-.341-.407-.159-.15-.102-.452.137-.532.182-.084.338.067.378.27-.024-.035-.04-.035-.05-.075 0 .076-.036.124 0 .173.165.154.355-.049.535.084.208.124.493-.07.732.07.013 0-.027.116.057.116.266.044.36.279.297.479-.018.048-.062.141-.155.118z" class="c"/>
    <path id="path91" d="M45.9 92.808c3.4-5.034 13.69-10.431 23.774-10.431 10.139 0 21.091 5.857 25.425 2.758 0 0-4.427 3.825-13.36 3.825-8.944 0-12.348-4.506-18.556-4.506-6.211 0-12.786 5.028-15.522 9.252z" class="c"/>
    <path id="path92" d="M77.816 81.647s2.957-1.767 4.493-5.016c1.572-3.269 5.628-8.434 9.714-11.614 0 0-4.596 14.5-9.325 15.146 0 0-.748.453.584.23 1.342-.23 7.39-2.451 9.546-2.824 2.13-.363 7.381-1.55 8.788-2.953 1.19-1.183 1.992-1.018 1.992-1.018s-5.835 9.739-16.332 9.739c0 0-5.166-.438-9.46-1.69z" class="c"/>
    <path id="path93" d="M90.229 76.631s1.102-1.692 1.329-4.601c.23-2.877 2-9.519 7.04-16.77 0 0 .733 11.462-4.978 18.487 0 0-.345 1.024.39.276.744-.74 4.34-5.078 12.126-10.347 0 0 4.043-3.324 4.272-4.423 0 0-3.17 16.267-20.18 17.378z" class="c"/>
    <path id="path94" d="M100.085 65.747s.433-1.836.433-3.39c0-1.563-.668-6.88-.668-9.253s.235-6.791 2.062-9.788c0 0 0 2.638.59 3.829.597 1.164 1.261 5.894 1.261 6.478 0 .587-.155 4.59-1.186 6.73 0 0 .748-.435 1.562-1.981.81-1.575 2.798-4.445 5.844-7.472 3.024-3.029 3.683-5.831 3.683-5.831s.745 5.312-3.174 10.904c-3.922 5.653-5.543 4.666-7.686 6.97 0 0-2.447 2.969-2.72 2.804z" class="c"/>
    <path id="path95" d="M106.189 52.97s-.128-3.257-.716-4.288c-.62-1.059-4.136-7.456-3.406-15.66 0 0 .584-.523 1.696 2.66 1.09 3.184 2.67 4.132 3.174 7.319.537 3.156.537 4.494.537 4.494s.354.443.354.08c0-.385.376-4.654 2.155-8.562 1.763-3.914 4.122-7.615 3.91-10.214 0 0 1.037.084.872 4.295-.133 4.223-1.248 11.541-8.576 19.877z" class="c"/>
    <path id="path96" d="M108.138 40.03s-1.276-2.935-2.161-3.918c-.885-.938-7.03-9.894-7.531-13.967 0 0 .5-.275 1.099.744.597 1.053 3.554 3.988 4.063 4.44.53.451 3.63 3.776 3.922 7.313 0 0 .298.377-.292-5.542-.584-5.906 1.931-9.736-.14-13.892 0 0 2.885.447 4.422 12.572 0 0-.066 4.286-2.285 9.537 0 0-.743 2.713-1.097 2.713z" class="c"/>
    <path id="path97" d="M105.906 26.745s-2.298-2.369-4.149-3.476c-1.833-1.124-7.596-6.805-8.632-11.245 0 0 .371-.491 2.213 1.926 1.409 1.86 2.869.952 7.098 6.287 0 0 .593 1.19.889 1.093.283-.048-.155-1.24-.155-1.24s-.824-3.316-.895-4.52c-.062-1.186-1.757-7.45-2.35-8.27 0 0 5.68 3.245 6.508 12.41 0 0-.244 6.654-.527 7.035z" class="c"/>
    <path id="path98" d="M101.023 16.973s.385-7.99-10.148-12.05c0 0 3.649 7.477 6.385 9.249 2.732 1.784 3.763 2.801 3.763 2.801z" class="c"/>
    <path id="path99" d="M74.127 92.808c-3.404-5.034-13.693-10.431-23.795-10.431-10.112 0-21.074 5.857-25.427 2.758 0 0 4.433 3.825 13.39 3.825 8.929 0 12.35-4.506 18.553-4.506 6.189 0 12.754 5.028 15.5 9.252z" class="c"/>
    <path id="path100" d="M42.217 81.647s-2.962-1.767-4.534-5.016c-1.54-3.269-5.609-8.434-9.677-11.614 0 0 4.578 14.5 9.327 15.146 0 0 .735.453-.593.23-1.336-.23-7.402-2.451-9.544-2.824-2.145-.363-7.39-1.55-8.803-2.953-1.178-1.183-1.997-1.018-1.997-1.018s5.84 9.739 16.35 9.739c0 0 5.164-.438 9.471-1.69z" class="c"/>
    <path id="path101" d="M29.78 76.631s-1.097-1.692-1.327-4.601c-.217-2.877-1.998-9.519-7.018-16.77 0 0-.744 11.462 4.935 18.487 0 0 .391 1.024-.354.276-.733-.74-4.356-5.078-12.139-10.347 0 0-4.056-3.324-4.267-4.423 0 0 3.18 16.267 20.17 17.378z" class="c"/>
    <path id="path102" d="M19.951 65.747s-.442-1.836-.442-3.39c0-1.563.663-6.88.663-9.253s-.22-6.791-2.066-9.788c0 0 0 2.638-.59 3.829-.596 1.164-1.26 5.894-1.26 6.478 0 .587.14 4.59 1.186 6.73 0 0-.736-.435-1.572-1.981-.81-1.575-2.803-4.445-5.822-7.472-3.015-3.029-3.696-5.831-3.696-5.831S5.62 50.38 9.535 55.973c3.913 5.653 5.525 4.666 7.68 6.97 0 0 2.444 2.969 2.736 2.804z" class="c"/>
    <path id="path103" d="M13.815 52.97s.151-3.257.735-4.288c.59-1.059 4.144-7.456 3.4-15.66 0 0-.589-.523-1.695 2.66-1.115 3.184-2.648 4.132-3.188 7.319-.517 3.156-.517 4.494-.517 4.494s-.356.443-.356.08c0-.385-.389-4.654-2.146-8.562-1.767-3.914-4.149-7.615-3.926-10.214 0 0-1.04.084-.891 4.295.152 4.223 1.261 11.541 8.584 19.877z" class="c"/>
    <path id="path104" d="M11.886 40.03s1.261-2.935 2.155-3.918c.895-.938 7.003-9.894 7.54-13.967 0 0-.537-.275-1.12.744-.59 1.053-3.541 3.988-4.065 4.44-.526.451-3.607 3.776-3.932 7.313 0 0-.27.377.325-5.542.57-5.906-1.922-9.736.15-13.892 0 0-2.891.447-4.454 12.572 0 0 .075 4.286 2.293 9.537 0 0 .748 2.713 1.108 2.713z" class="c"/>
    <path id="path105" d="M14.113 26.745s2.283-2.369 4.139-3.476c1.85-1.124 7.6-6.805 8.655-11.245 0 0-.381-.491-2.227 1.926-1.403 1.86-2.89.952-7.083 6.287 0 0-.593 1.19-.891 1.093-.31-.048.142-1.24.142-1.24s.824-3.316.88-4.52c.071-1.186 1.781-7.45 2.375-8.27 0 0-5.708 3.245-6.496 12.41 0 0 .208 6.654.506 7.035z" class="c"/>
    <path id="path106" d="M19 16.973s-.385-7.99 10.112-12.05c0 0-3.618 7.477-6.35 9.249C20.032 15.956 19 16.973 19 16.973Z" class="c"/>
  </g>
</svg>
