<svg xmlns="http://www.w3.org/2000/svg" id="avatar" data-source="ai-avatar" viewBox="0 0 64 64">
  <defs>
    <linearGradient id="a" x1="54" x2="54" y1="32.2" y2="21.3" gradientUnits="userSpaceOnUse">
      <stop offset="0" stop-color="#2e3436"/>
      <stop offset="1" stop-color="#e6ecef"/>
    </linearGradient>
    <linearGradient id="b" x1="32" x2="32" y1="50.4" y2="37.5" gradientUnits="userSpaceOnUse">
      <stop offset="0" stop-color="#eb1405"/>
      <stop offset="1" stop-color="#e6ecef"/>
    </linearGradient>
  </defs>
  <circle cx="32" cy="32" r="32"/>
  <path fill="url(#a)" d="M56.9 16.7a3 3 0 0 0-5.7-1 3 3 0 0 0 1.8 3.8v12c0 .6.5 1 1 1s1-.4 1-1v-12a3 3 0 0 0 1.9-2.8Z"/>
  <path fill="#0988bb" d="M11 28.2c-2.1 0-4 1.8-4 4.2v1c0 2.7 2.2 4.7 4.7 4.2 1.8-.4 3-2.2 3-4.1v-1c0-2.4-1.7-4.3-3.8-4.3Zm42 0c-2 0-3.8 1.9-3.8 4.2v1c0 2.4 1.7 4.3 3.8 4.3s3.7-2 3.9-4.3v-1c0-2.3-1.8-4.2-3.9-4.2Z"/>
  <path fill="#e6ecef" d="M19.6 30.8c0-2.6-.3-3.1-.3-3.6 0-.6 2.2-.8 2.9-.8.8 0 .8 1 1 1.6.5-1 1.3-2 2.8-2 1.3 0 1.5 1 1.5 1.4 0 .5-.3 2.2-.8 2.2l-1.2-.2c-1.1 0-1.8.7-2.1 1.3v8.1c0 .5-.5.8-1.6.8h-.7c-1 0-1.5-.3-1.5-.8v-8Zm8.6-3.5v-.4c0-.7 2.1-.6 2.1-.6.7 0 1.4.1 1.5.5l2 7.8 2-7.8c0-.4.5-.6 1.3-.6h.6c.7 0 1.3.2 1.4.6l1.9 7.8 2-7.8c.2-.4.6-.6 1.4-.6h.2c1 0 1.5.3 1.5.7v.4L43 39c-.1.3-.7.5-1.4.5h-1.3c-.8 0-1.3-.2-1.4-.5l-1.7-7-1.7 7c0 .4-.7.6-1.4.6h-1.3c-.8 0-1.3-.2-1.4-.5l-3.2-11.8ZM13.3 12.9l.6 1.3c.3.7.8 1.2 1.5 1.5l1.3.5-1.3.5c-.7.3-1.2.8-1.5 1.5l-.6 1.4-.5-1.4c-.3-.7-.8-1.2-1.5-1.5l-1.3-.5 1.3-.5c.7-.3 1.2-.8 1.5-1.5l.5-1.3Zm4.8-2.9.4 1c.2.4.6.8 1 1l1 .4-1 .4c-.4.2-.8.5-1 1l-.4 1-.3-1c-.2-.5-.6-.8-1-1l-1-.4 1-.4c.4-.2.8-.6 1-1l.3-1Zm33.5 38.2.4 1c.2.5.6.8 1 1l1 .4-1 .4c-.4.2-.8.6-1 1l-.4 1-.4-1c-.2-.4-.5-.8-1-1l-1-.4 1-.4c.5-.2.8-.5 1-1l.4-1Z"/>
  <path fill="url(#b)" d="M41 18.6H23c-6 0-11 5.1-11 11.3v5.6c0 5 3.1 9.3 7.6 10.8-1 0-2 .7-2 1.8s1 2 2 2h24.8c1 0 2-.9 2-2s-1-1.8-2-1.8c4.5-1.5 7.7-5.8 7.7-10.8v-5.6c0-6.2-5-11.3-11.2-11.3Zm7.3 17.6c0 4-3.3 7.3-7.3 7.3H23c-4 0-7.3-3.3-7.3-7.3v-6.5c0-4 3.3-7.3 7.3-7.3h18c4 0 7.3 3.3 7.3 7.3v6.5Z"/>
</svg>
